<svg xmlns="http://www.w3.org/2000/svg" viewBox="0 0 2487.1 3000" xml:space="preserve"><path fill="#FEDD22" d="m645.7 92.9-29.6 92.9c-180.9 0-194.6.4-194.2 2.6.2 1.4 33.9 26.8 74.6 56.2 40.9 29.6 76 54.9 77.9 56.2 3.6 2.4 2.9 4.8-26.8 95.3-16.7 51-29.9 93.1-29.3 93.6.6.6 2.9-.2 5-1.6 2.3-1.4 37-26.6 77.4-55.9 40.3-29.4 74.2-54.1 75.1-54.9 1.1-.7 34.7 22.6 78.7 54.8 42.3 30.9 78 56.6 79.3 57.3 1.2.6 2.6.8 3.2.2.6-.5-12.5-42.8-29.1-94.1-16.6-51.2-29.9-93.3-29.6-93.3.4-.1 35.8-25.8 79-57.1 43.1-31.2 77.8-57.4 77-58.2-.8-.7-45.1-1.6-98.3-1.8l-96.9-.5C688.6 25.1 680 0 678 0s-10.7 25.4-32.3 92.9zm1131.6-.5-29.6 92.5c-149.9.7-194.1 1.6-194.9 2.3-1 .7 33.7 26.9 76.8 58.2 43.1 31.2 78.6 57 79 57.1.4 0-13 42.1-29.6 93.3-16.6 51.3-29.7 93.6-29.1 94.1.6.6 2 .4 3.2-.2 1.3-.7 37-26.4 79.3-57.3 44-32.2 77.6-55.5 78.7-54.8 1 .8 34.9 25.5 75.1 54.9 40.4 29.3 75.1 54.4 77.4 55.9 2.2 1.3 4.4 2.2 5 1.6.6-.5-12.6-42.7-29.3-93.6-29.7-90.5-30.4-92.9-26.8-95.3 1.9-1.3 37-26.7 77.9-56.2 40.7-29.4 74.4-54.8 74.6-56.2.4-2.3-13.3-2.6-96.9-2.6h-97.4C1820.6 26.9 1811.2 0 1809.4 0c-1.8 0-11.2 26.9-32.1 92.4z"/><path fill="#FEFEFE" d="M1161.2 515.4c-12 1-37.3 3.4-56.2 5.5-18.9 2-48.6 6.1-66 9.1-17.4 2.9-44.8 8.2-60.7 11.7-16 3.5-41.2 9.7-56.1 13.7-14.9 4-42.3 12.3-60.7 18.3-18.4 6-43.6 14.8-56.1 19.5-12.4 4.7-33.7 13.2-47.1 19-13.3 5.6-38.2 17.1-55.2 25.2S658 660.2 640.6 670c-17.4 9.7-45.1 26.2-61.5 36.7-16.5 10.5-41.7 27.5-56.1 37.7-14.4 10.3-37.6 27.9-51.6 39.1-13.9 11.2-34.7 28.5-46.3 38.5-11.4 10.1-34.5 31.7-51.3 48.2-16.7 16.5-39.7 40-51 52.5-11.3 12.4-28.8 32.8-39.1 45.2-10.2 12.5-27.2 34-37.6 48-10.5 13.9-29 40.5-41.1 58.9-12.1 18.4-30 47.4-39.8 64.3-9.6 16.8-24.9 45.4-33.9 63.3s-20 40.7-24.4 50.6c-4.4 10-13 30.4-19 45.3-5.9 14.9-15.7 41.3-21.6 58.8s-14.7 45.6-19.6 62.5c-4.8 16.9-12 45.4-16 63.3-4.1 17.9-9.5 44.3-11.9 58.8-2.5 14.5-5.9 35.2-7.3 46.2-1.4 11.1-4 32.2-5.4 47.1-1.6 14.9-3.7 48.3-4.9 74.3-1.6 36.1-1.6 57.9 0 94.1 1.2 25.8 3.4 59.3 4.9 74.2 1.4 14.9 4 36.2 5.4 47.1s4.8 31.7 7.3 46.2c2.4 14.4 7.8 40.9 11.9 58.8 4 17.9 10.5 44 14.4 57.9 3.8 13.9 11.2 38 16.3 53.4 5 15.5 12.6 37.5 16.8 48.9 4.3 11.4 12 31 17.3 43.4 5.2 12.5 14.9 34.5 21.6 48.9 6.6 14.4 18.7 38.7 26.9 53.8 8.1 15.1 22.4 40.5 31.7 56.1s24.9 40.3 34.6 54.8c9.7 14.4 26.8 38.5 38 53.4 11.3 14.9 31 39.8 44 55.2 13 15.5 34.7 39.9 48.4 54.3 13.7 14.4 36.4 37.1 50.5 50.5 14.1 13.2 38.2 34.7 53.6 47.7 15.5 13 40.3 32.7 55.3 43.9 14.9 11.3 40.5 29.3 57 40.3 16.5 10.9 40.9 26.3 54.3 34.4 13.5 7.9 35.8 20.6 49.8 28 13.9 7.5 39.3 20.1 56.1 28 16.9 8.1 45.6 20.6 63.5 27.8 17.9 7.2 48.1 18.3 66.9 24.8 19 6.4 47.5 15.1 63.3 19.6 16 4.4 41.2 10.9 56.2 14.3 14.9 3.4 38.5 8.3 52.4 10.8 13.9 2.4 33.5 5.8 43.5 7.2 10 1.6 29.6 4 43.5 5.5 13.9 1.6 36.3 3.6 49.8 4.6 13.5 1 40.3 2.3 59.7 2.9 19.7.7 54.6.2 78.7-.8 23.9-1.2 55.8-3.4 70.7-4.8 14.9-1.4 36.1-4 47.1-5.4 10.9-1.4 31.7-4.8 46.2-7.3 14.4-2.4 40.9-7.8 58.8-11.8 18-4.1 46.5-11.3 63.5-16.1 16.9-4.8 45-13.7 62.4-19.6 17.4-5.9 41.9-14.8 54.3-19.8 12.5-4.9 32.5-13.3 44.5-18.5 11.9-5.2 39.2-18.3 60.6-29 21.4-10.8 54.8-29.2 74.3-40.9 19.5-11.5 41.5-25.2 48.9-30.2 7.5-5 24.5-16.9 38-26.4s36.4-26.9 51.2-38.6c14.7-11.8 34.3-28 43.4-36.1 9.3-8.1 27.8-25 41.1-37.5 13.3-12.6 35.7-35.1 49.6-50.1 13.9-14.9 35.3-39.1 47.6-53.8 12.4-14.7 31.1-38.2 41.7-52.4 10.6-14.2 28-38.8 38.6-54.8 10.6-15.9 25.8-39.9 33.9-53.4 8.1-13.5 20.2-34.6 26.9-47.1 6.9-12.4 18.3-34.9 25.5-49.8 7.1-14.9 17.9-38.6 23.8-52.5 6-13.9 16.2-39.5 22.7-57s15.5-43.9 20.2-58.9c4.7-14.9 12.9-44.2 18.1-65.1 5.4-20.9 12.6-53 16.1-71.5 3.5-18.4 7.9-45.2 10-59.7 2-14.4 4.9-38.5 6.4-53.4 1.6-14.9 3.7-48.3 4.9-74.2 1.6-36.2 1.6-58.1 0-94.1-1.2-26-3.4-59.4-4.9-74.3-1.4-14.9-4.7-41.3-7.2-58.8-2.5-17.4-7.5-46-10.9-63.5-3.5-17.3-8.8-41.3-11.8-53.4-3-11.9-8.7-33.1-12.7-47-4-13.9-11.3-37.6-16.3-52.5-5-14.9-14.4-40.6-20.9-57.1-6.5-16.3-18.6-44.8-27-63.3-8.4-18.4-22.6-47.2-31.7-64.2-9-16.9-22.6-41-30-53.5-7.5-12.4-21.9-35.2-32.1-50.6-10.1-15.5-28.2-41.1-40.1-57.1-11.9-15.9-30.8-39.9-42.1-53.4-11.2-13.5-32.8-37.7-47.8-54.1-15.1-16.2-41-42.1-57.3-57.3-16.5-15.1-40.9-36.8-54.3-48.1-13.5-11.2-37.5-30.2-53.5-42.1-15.9-11.9-42.8-30.8-59.7-41.9-16.9-11.1-39.8-25.5-50.7-32-10.9-6.5-32.9-18.7-48.8-27.3-16-8.5-41.2-21.2-56.1-28.1-15-6.9-35.3-16-45.3-20.3-10-4.2-28.4-11.5-40.7-16.2-12.5-4.7-37.7-13.5-56.1-19.5s-45.8-14.3-60.7-18.3c-14.9-4-40.1-10.2-56.1-13.7-15.9-3.5-40.7-8.4-55.2-10.9-14.4-2.5-39.3-6.1-55.3-8.2-15.9-1.9-38.3-4.4-49.8-5.5-11.4-1.1-53.8-2.3-94.2-2.6-40.6-.7-83.4-.2-95.3.7z"/><path fill="#006CB5" d="M1192.8 521.7c-6.5.4-24.4 1.6-39.8 2.6-15.5 1.1-41.1 3.6-57.1 5.5-15.9 1.9-43.3 6-60.7 9-17.4 3-44.2 8.2-59.7 11.7-15.4 3.5-40.3 9.6-55.2 13.7-14.9 4.1-43.9 12.9-64.3 19.7-20.4 6.7-48.9 16.9-63.3 22.7-14.4 5.8-41.3 17.2-59.7 25.6-18.5 8.3-47.8 22.8-65.3 32.1-17.4 9.4-43 23.8-57 32.2-13.9 8.4-37.6 23.4-52.5 33.4-15 10.1-38.8 26.9-53 37.5-14.2 10.6-37.9 29.3-52.5 41.7-14.7 12.3-39.7 34.5-55.5 49.3-16 14.8-41.3 40.4-56.5 56.8-15.3 16.3-35.1 38.8-44.2 49.8-9 10.9-23.8 29.2-32.7 40.7-8.8 11.4-23.4 31.4-32.6 44.3-9 12.9-23.4 34.5-32 48-8.5 13.5-22.1 36.2-30.4 50.6-8.2 14.4-22.2 41-31.1 58.9-9 17.9-21.6 44.8-28.1 59.7-6.5 14.9-16.6 40.1-22.6 56.1-6 15.9-15.1 41.9-20.3 57.9-5.2 15.9-13.8 46-19.1 66.9-5.4 20.9-12.6 52.3-16.1 69.7-3.4 17.4-7.9 43.4-10 57.9-2 14.4-4.9 37.1-6.4 50.6-1.4 13.5-3.6 39.5-4.8 57.9-1.3 20.9-1.8 55.6-1.1 92.3.5 32.3 1.8 68.6 3 80.5 1.1 12 3.6 35.2 5.6 51.7 2 16.3 5.8 41.6 8.2 56.1 2.4 14.4 7.3 39.2 10.8 55.2 3.6 15.9 9.7 41.2 13.7 56.1 4.1 14.9 12.6 43.4 19.1 63.3 6.5 20 18.4 52.5 26.3 72.4 8.1 20 20.7 49.3 28.1 65.1 7.6 16 20.2 41.2 28.1 56.1 7.9 15 21 38.2 29 51.7 8.1 13.3 23.3 37.4 33.9 53.4 10.6 15.9 29.1 41.9 41.1 57.9 12 15.9 29.3 37.9 38.5 48.8 9.1 10.9 25.8 30.2 37.1 42.5 11.3 12.5 33.1 34.9 48.3 49.9 15.3 14.9 37.6 35.7 49.5 46.2 11.9 10.5 29.9 25.6 39.8 33.7 10 7.9 29.2 22.7 42.7 32.7 13.3 10 38.7 27.5 56.1 39.1 17.4 11.4 43 27.4 57 35.6 13.9 8.2 42.1 23.2 62.5 33.5s45.7 22.6 56.1 27.2c10.5 4.7 30.8 13.2 45.3 19 14.4 5.8 39.7 15.1 56.1 20.8 16.3 5.6 40.9 13.5 54.3 17.3 13.3 3.8 35.8 9.9 49.8 13.3 13.9 3.5 37.5 8.8 52.5 11.8 14.9 3 40.6 7.5 57 10 16.5 2.5 41.7 5.9 56.1 7.3 14.4 1.6 39.3 3.6 55.3 4.6 15.9 1.1 50.1 1.9 76.1 1.9 25.8-.1 58.9-.8 73.3-1.8 14.4-1.1 35.2-2.8 46.2-3.7 10.9-1.1 34.6-4.1 52.5-6.5 17.9-2.5 46.9-7.3 64.3-10.8 17.4-3.5 48.8-10.7 69.7-16 20.9-5.4 52.3-14.4 69.7-20.1 17.4-5.8 45.6-15.6 62.4-22.1 16.9-6.5 43.5-17.4 58.9-24.4 15.5-6.9 44.3-20.8 64.3-31.1 20-10.2 47.6-25.4 61.5-33.7 13.9-8.3 38.5-23.7 54.3-34.1 16-10.6 42.1-29 57.9-41 16-11.9 38.8-29.8 50.6-39.8 11.9-10 30.3-25.8 40.7-35.3 10.5-9.5 30.4-28.6 44.3-42.5 13.8-13.9 35.5-36.8 47.8-50.7 12.4-13.9 31.6-36.7 42.8-50.6 11.2-13.9 27-34.7 35.5-46.2 8.3-11.5 23.4-33.5 33.5-48.9 10.1-15.4 25.4-39.9 33.8-54.3 8.4-14.4 21.5-38 29.1-52.4 7.6-14.5 19.2-38.1 25.8-52.5 6.6-14.4 18-41 25.2-58.9 7.2-17.9 17.8-46.4 23.4-63.3 5.6-16.9 13.9-43.4 18.3-58.8 4.3-15.5 10.3-38.2 13.3-50.7 2.9-12.4 7.5-33.4 10-46.6 2.6-13.1 6.2-33.9 8.2-46.2 2-12.1 5.3-36.8 7.2-54.7 2-17.9 4.6-45.7 5.5-61.5 1.1-16 1.9-50.2 1.9-76.1 0-25.8-.8-60.1-1.9-76-1-16-3.5-43.6-5.5-61.5-1.9-18-6-47.4-9-65.3s-8.7-47.2-12.6-65.1-10.9-45.6-15.3-61.5c-4.4-15.9-13.7-45.7-20.7-66.1-7-20.3-17.1-48.1-22.5-61.5-5.4-13.3-14.5-35-20.3-48-5.9-12.9-17.3-36.5-25.4-52.4-8.1-16-21.5-40.9-29.8-55.3s-22.4-37.6-31.4-51.6c-8.9-13.9-23.7-35.9-32.9-48.9-9.1-12.9-24.6-33.7-34.4-46.2-9.9-12.4-27.2-33.5-38.7-47-11.5-13.5-36.1-39.8-54.6-58.5-18.4-18.9-45.7-44.8-60.5-57.9-14.8-13.1-38.3-33.1-52.4-44.2-14.2-11.3-37.5-28.8-51.9-39.2-14.4-10.3-37.6-26.1-51.6-35-13.9-8.9-36.8-22.7-50.7-30.6-13.9-7.9-33.9-19-44.3-24.6-10.5-5.5-32.1-16.1-48.1-23.6-15.9-7.3-43.1-19.1-60.6-26.2-17.4-7-44-16.9-58.9-22.1-14.9-5-39.4-12.9-54.3-17.2-14.9-4.4-37.4-10.6-49.8-13.7-12.5-3.1-38.6-8.8-57.9-12.6-19.5-3.8-50.5-9.1-68.9-11.5-18.4-2.5-47.7-5.9-65.1-7.5-17.4-1.6-57-3.1-87.9-3.5-30.3-.2-60.9-.2-67.4.1z"/><path fill="#FEFEFE" d="M1196.4 607c-7.5.4-28.6 1.9-47 3.4-18.5 1.6-45.3 4.4-59.9 6.5-14.4 1.9-41.2 6.5-59.7 10-18.4 3.5-44.8 9.3-58.8 12.7-13.9 3.5-38 10-53.5 14.5-15.4 4.4-42.7 13.5-60.6 20-18 6.5-45.3 17.2-60.7 23.7-15.5 6.5-46 20.9-67.9 32.1-21.9 11.1-52.9 27.9-68.9 37.5-15.9 9.5-39.5 24.4-52.5 33.1-12.9 8.8-35.7 25-50.6 36.2-15 11.3-36.2 28-47.1 37.1-10.9 9.1-32.6 28.2-48 42.5-15.5 14.2-40 38.8-54.7 54.6-14.5 15.7-34 37.6-43.3 48.7-9.1 10.9-26.6 32.9-38.5 48.8-12 16-30.2 41.6-40.3 57.1-10.1 15.4-25.1 39.4-33.3 53.4-8.2 13.9-24.4 44.5-36.1 67.9-11.7 23.3-25.6 53.1-30.9 66-5.4 13-14.5 36.7-20.4 52.5-5.9 16-14.7 42.4-19.6 58.9-4.9 16.3-11.8 41.2-15.4 55.2-3.5 13.9-9.1 39.5-12.6 57-3.4 17.4-8.3 46.8-10.7 65.1-2.5 18.5-5.5 45-6.9 58.9-1.6 16.2-2.4 52-2.4 99.5.1 57.3.8 81.2 3.2 105 1.7 16.9 5.2 44.6 7.7 61.5s7 42.9 10 57.9c3 14.9 9.3 41.8 13.7 59.7 4.6 17.9 14.2 50.5 21.5 72.4 7.2 21.9 16.9 49.6 21.8 61.5 4.7 12 13.2 32.3 19 45.3 5.8 12.9 16.1 34.9 23.1 48.8 7 13.9 20.7 39.2 30.3 56.1 9.7 16.9 26.8 44.6 38 61.5s30 43.9 42.1 59.7c12 16 32.1 41 44.7 55.6 12.6 14.7 34 38.2 47.7 52.3 13.7 14.2 34.7 34.7 46.8 45.8 12 11.1 31.1 27.9 42.5 37.5 11.4 9.5 32.9 26.6 48 37.7 14.9 11.3 39.8 28.8 55.2 38.9 15.5 10.2 36.7 23.7 47.1 29.9 10.5 6.3 32.5 18.5 48.9 27.3 16.3 8.9 45 22.8 63.3 31.2 18.4 8.3 47.4 20.4 64.3 26.9s41.3 15.3 54.3 19.5c12.9 4.2 37.7 11.5 55.2 16.3 17.4 4.7 47.6 11.9 67.1 16 19.4 4 49.5 9.4 66.9 11.9 17.4 2.5 45.9 6 63.3 7.7 24.4 2.4 48.4 3.2 104.2 3.2 56.2 0 79.4-.7 104.1-3.2 17.4-1.7 45.6-5.2 62.5-7.6 16.8-2.4 45-7.3 62.4-10.8 17.4-3.6 44-9.7 58.9-13.6s39.4-10.8 54.3-15.4c14.9-4.7 41.5-13.7 58.9-20.3 17.4-6.5 46.3-18.3 64.2-26.2 18-7.9 45.3-20.9 60.7-29 15.5-8.1 36.7-19.5 47.1-25.6 10.5-6 30.4-18.3 44.3-27 13.9-8.9 37.1-24.5 51.6-34.9 14.4-10.5 35.7-26.3 47.1-35.6 11.4-9.1 29.3-24 39.8-33.1 10.5-9 30.3-27.4 44.2-40.9 13.8-13.5 34.6-34.6 46-47 11.5-12.5 29.1-32.5 39.1-44.3 10-12 26.6-33.2 37-47.1s28.1-39.2 39.3-56.1 26.9-42.2 35.1-56.1 24.2-44 35.5-66.9c11.4-22.8 25.8-54.2 32.2-69.7 6.4-15.4 15.7-39.8 20.9-54.3 5.2-14.4 12.6-37.1 16.7-50.6 4-13.5 10.1-35.1 13.5-48 3.5-13 9.5-39.9 13.5-59.7 4-20 8.9-47.6 10.8-61.5 2-13.9 5-38 6.6-53.5 1.7-16.7 3.2-53.6 3.8-91.3.6-39.3.2-75.1-1.1-94.1-1.1-16.9-3.2-41.8-4.8-55.3-1.4-13.3-5.2-39.4-8.2-57.9-3-18.4-8.3-46-11.8-61.5-3.4-15.4-9.6-40.3-13.6-55.2-4.1-14.9-12.1-41.3-17.9-58.8-5.8-17.4-16.3-46.4-23.6-64.3-7.3-17.9-19-44.8-26-59.7-7.1-14.9-18.9-38.6-26.3-52.5-7.3-13.9-20.8-37.5-29.7-52.5-9-14.9-23.8-38.1-32.9-51.6-9-13.5-23.8-34.1-32.7-46.2-8.9-11.9-25.1-32.3-35.9-45.2-10.7-13-31.1-36.1-45.2-51.4-14.2-15.3-38.7-39.8-54.7-54.6-16-14.8-38-34.3-48.9-43.4-10.9-9.3-32.1-25.8-47-37.1-15-11.2-37.9-27.4-50.7-36.2-13-8.7-36.7-23.6-52.5-33.1-16-9.6-46.9-26.4-68.9-37.5-21.9-11.2-52.4-25.6-67.9-32.1-15.4-6.5-42.7-17.2-60.6-23.7s-45.3-15.5-60.7-20c-15.4-4.6-39.4-11.1-53.4-14.5-13.9-3.5-40.5-9.3-58.9-12.7-18.4-3.5-45.3-8.1-59.7-10-14.4-2-40.5-4.9-57.9-6.5s-54.9-3.1-83.3-3.5c-28-.1-57.4-.1-64.9.4z"/><path fill="#006CB5" d="M1168.4 680.1c-10.9.8-31.4 2.9-45.3 4.4-13.9 1.6-39.2 5.2-56.1 8.1-16.9 2.9-40.5 7.3-52.5 10-11.9 2.6-33.9 8.1-48.9 12-14.9 4.1-40.1 11.5-56.1 16.8-15.9 5.3-42.8 15-59.7 21.8-16.9 6.7-43 17.9-57.9 24.9-14.9 7-38.6 18.7-52.5 26.3-13.9 7.5-35.5 19.7-48 27.3-12.5 7.5-32 19.8-43.5 27.5-11.4 7.7-32.2 22.5-46.2 32.8-13.9 10.5-33.9 26.1-44.3 34.9-10.5 8.8-31.2 27.2-46.2 40.9-14.9 13.7-38.7 37.5-52.8 52.8-14.2 15.3-32.8 36.4-41.6 46.9-8.8 10.5-24.4 30.4-34.9 44.3-10.3 13.9-25.1 34.6-32.8 46.2-7.7 11.4-20.1 31-27.6 43.4-7.5 12.5-19.7 34-27.3 48-7.6 13.9-19.6 38-26.7 53.4-7.2 15.5-17.7 39.9-23.6 54.3-5.8 14.4-14.3 37.3-18.9 50.7-4.6 13.5-11.9 36.7-16.2 51.6-4.3 14.9-10.8 39.8-14.4 55.3-3.5 15.4-8.9 42.3-11.8 59.7-3 17.3-7.1 46.3-9.1 64.2s-4.6 52.2-5.6 76.1c-1.6 32.5-1.6 54.6 0 87.7 1.2 24.4 3.7 58.7 5.8 76.1 1.9 17.4 6 45.4 8.9 62.4 2.9 16.9 8.1 43 11.4 57.9 3.5 14.9 10.1 40.6 14.8 57.1 4.7 16.3 11.8 39.2 15.7 50.6 4 11.4 13 35.5 20.1 53.5 7.2 17.9 21.6 50 32.2 71.4 10.6 21.4 25.6 50 33.3 63.5 7.8 13.3 22.6 37.4 33.1 53.4 10.5 15.9 28.2 41.1 39.5 56.1 11.2 14.9 25.8 33.7 32.5 41.6 6.7 7.9 20.1 23.4 29.9 34.4 9.7 10.9 30.6 32.6 46.4 48 15.9 15.5 37.4 35.5 47.8 44.5 10.5 9 25.1 21.3 32.6 27.3s23 17.9 34.4 26.4c11.4 8.4 33.9 23.9 49.8 34.4 16 10.6 40 25.4 53.5 33.2 13.5 7.7 41.1 22.2 61.5 32.3 20.4 10.1 47.7 22.8 60.7 28.1 12.9 5.4 35.7 14.2 50.6 19.6 15 5.4 41.8 14.1 59.9 19.4 17.9 5.3 45.2 12.5 60.6 16.1 15.5 3.6 39.9 8.5 54.3 11.1 14.4 2.5 38.9 6.3 54.3 8.2 15.5 1.9 39.5 4.4 53.5 5.6 13.9 1.3 51 2.3 82.3 2.3 38.8-.1 67.8-1.1 90.5-3.1 18.5-1.7 45-4.7 58.9-6.7 13.9-1.9 38.3-6 54.3-9 16-3.1 44.8-9.6 64.3-14.5 19.4-4.9 50.7-14.2 69.7-20.6 18.9-6.2 47-16.6 62.5-22.8 15.4-6.1 40.6-17.2 56.1-24.4 15.4-7.2 37.9-18.4 49.8-24.9 11.9-6.4 31.1-17.2 42.5-23.9 11.4-6.9 33.1-20.4 48-30.4 15-10 37-25.4 48.9-34.4 11.9-9 28.6-22.1 37.1-29.1 8.4-7 25.1-21.4 37.1-32.1 11.9-10.6 35.6-33.4 52.5-50.7 16.8-17.4 40.6-43.4 52.6-57.8s29.2-35.9 38.2-47.8c9-12 23.2-32 31.6-44.3 8.3-12.5 21.8-33.7 29.8-47.1 8.1-13.5 20.2-34.6 27-47 6.7-12.5 16.6-32.1 22-43.5 5.4-11.4 14.4-31.4 20-44.3 5.5-13 14.3-35.3 19.6-49.8 5.3-14.4 13.2-38.1 17.7-52.5 4.6-14.4 11.5-39.3 15.5-55.2 4-16 9.7-41.6 12.6-57.1 3-15.4 6.7-36.9 8.3-48 1.6-10.9 4.1-30.9 5.5-44.3 1.6-13.3 3.7-44.3 4.9-68.7 1.6-34 1.6-54.7 0-88.7-1.2-24.4-3.4-55.3-4.9-68.7-1.4-13.5-4-33.4-5.5-44.3-1.6-10.9-5.3-32.6-8.3-48-2.9-15.5-9-42.8-13.6-60.7-4.4-17.9-14.5-51.7-22.4-75.1-7.7-23.3-19.6-55.5-26.2-71.5-6.6-15.9-19.6-44.3-29-63.3-9.3-18.9-23.9-46.5-32.6-61.5-8.7-14.9-24.3-40.1-34.9-56.1-10.5-15.9-25.8-37.9-33.9-48.8-8.2-10.9-23.2-30.2-33.4-42.5-10.2-12.5-30.2-35.2-44.2-50.6-14.2-15.4-37.9-39.3-52.9-53.1-14.9-13.8-39.2-35-54-47.1-14.8-12.1-39.4-31-54.7-41.9-15.4-10.9-38.3-26.6-51.1-34.6-12.7-8.2-33.3-20.6-45.8-27.6-12.4-7.2-37.3-20.2-55.2-29.1-17.9-8.9-45.7-21.5-61.5-28.1-16-6.6-41.5-16.5-56.6-21.9-15.3-5.4-41.7-13.8-58.9-18.9-17.2-4.9-44.2-11.9-60.2-15.5-15.9-3.6-42.8-8.9-59.7-11.7-16.9-2.9-41.8-6.4-55.2-7.9-13.5-1.6-35.9-3.6-49.9-4.7-13.9-1-49.4-1.7-78.7-1.6-29.2-.8-62.1 0-73.1.7z"/><path fill="#FEFEFE" d="M1236.6 737.6c-.1 4.2-1.9 53.4-3.8 109.4-2 56-3.5 101.9-3.2 102 .2.1 34.5 1.4 76.2 2.8 67.1 2.2 75.8 2.2 77.3-.2 1-1.6 1.8-9.9 1.8-18.6v-15.7c-17.5-.2-42.2-1-66.1-1.9-23.9-.8-43.6-1.8-43.7-2.2-.2-.2 1-40.5 2.6-89.5 1.7-48.9 2.6-89.4 2.2-90-.5-.6-10.3-1.6-21.9-2.3l-21-1.1m-181.8 11.4c-7.5 2-18.4 6.2-24.3 9.5-5.9 3.1-15.3 10.2-20.8 15.7-5.6 5.4-12.7 14.8-15.9 20.8-3.1 6-7 15.3-8.7 20.8-1.6 5.5-3.4 16.1-4 23.6-.6 7.5-.2 20.4 1 29 1.1 8.4 3.2 20.2 4.7 26.2 1.6 6 6 17.4 9.9 25.4 5.4 11.1 10 17.2 19.5 26.2 6.9 6.5 16.9 13.9 22.4 16.7 5.4 2.6 14.8 6.1 20.8 7.7 6 1.6 16 2.8 22.1 2.8 6.2 0 17.7-1.2 25.4-2.9 7.8-1.6 19-5 24.9-7.9 6-2.8 15.1-9.3 20.4-14.3 6-5.9 11.8-14.1 15.9-22.4 3.5-7.2 7.5-18.4 8.8-24.9 1.3-6.5 2.4-12 2.3-12.3-.1-.2-10-2-22-4-16.6-2.6-22-3-23-1.3-.6 1.2-1.6 5.8-2 10.3-.5 4.4-2.4 11.4-4.4 15.4-1.9 4-5.9 9.5-8.8 12.4-2.9 2.9-8.4 6.9-12.4 9-5.6 3-10.6 3.8-21.8 3.8-13 0-15.6-.6-24.5-5.6-6.5-3.6-12-8.7-15.9-14.4-3.4-4.8-7.9-14.9-10.2-22.4-2.3-7.6-5.2-20.6-6.5-29-1.3-8.5-1.9-21.2-1.3-28.1.6-7.8 2.5-15.7 4.9-20.8 2.3-4.4 6.6-10.8 9.7-14.2 3.1-3.4 8.5-7.6 12-9.4 3.5-1.8 10.8-4.1 16.3-5 5.4-1.1 13.2-1.2 17.2-.5s10.5 3 14.4 5c4.1 1.9 9.6 6.4 12.5 9.7 2.9 3.4 6.1 7.9 7.2 10.1 2 3.8 2.2 3.7 21-4.3 10.5-4.4 19.7-8.4 20.4-8.8.7-.5-.8-5-3.5-10.3-2.6-5.2-8.5-13.2-13.1-17.8-4.6-4.6-12.6-10.5-17.8-13.1-5.3-2.6-14.3-6-20-7.6-5.8-1.4-16.9-2.6-24.9-2.6-8.2.2-20.1 1.7-27.9 3.8zm428 14.6c-1.2 3.4-11.1 32.5-22 64.8-10.9 32.5-21.6 66.6-23.8 76.1-2.8 11.5-3.8 21-3.5 29 .5 7.9 2.3 15 5.5 21.8 2.6 5.4 8.8 13.9 13.6 18.7 5.8 5.8 14.2 11.4 25 16.7 9 4.3 23.2 9.6 31.7 11.8 11.5 2.9 19.1 3.7 30.8 3.1 11.9-.6 17.7-1.8 25.4-5.5 5.4-2.6 13.6-8.7 18-13.5 4.4-4.8 11.1-15.3 14.8-23.3 3.6-7.9 16.9-44.1 29.4-80.5 12.5-36.3 22.8-66.7 22.8-67.4 0-.7-9.3-4.2-20.4-7.8-11.2-3.6-20.8-5.8-21.4-4.9-.7.7-11.5 31.2-24.2 67.5s-25 70.3-27.4 75.6c-3.4 7.1-6.6 10.8-13 14.9-5.9 3.7-10.9 5.5-15.9 5.5-4 0-12.7-1.7-19.5-3.7-9.5-2.8-14.1-5.4-20.4-11.8-5.4-5.4-8.8-10.7-10.1-15.9-1.3-5.5-1.3-10.7 0-18.5 1.1-6 12.1-40.1 24.6-76.1 12.5-35.8 22.7-66.1 22.7-67.3.1-1.3-7.9-4.7-18.5-7.9-10.3-3.2-19.6-6.1-20.6-6.5-.7-.4-2.5 1.9-3.6 5.1zM711.8 878.8c-36.1 21.5-67.4 40.5-69.7 42.1l-4.2 2.9c86.7 145.7 112 188.2 112 188.5.1.2 32.3-18.7 71.8-42.3 39.3-23.4 71.9-43 72.4-43.4.6-.4-3.1-7.3-8.1-15.5-5-8.1-9.5-15-10-15.3-.5-.2-24.2 13.3-52.5 30.2-28.4 16.8-52.3 30.5-53 30.5-.7 0-7.5-10.3-14.8-23.1-7.5-12.6-13.9-24.3-14.5-25.7-.6-2 11.7-10.2 45.9-30.8l46.9-28.1c-11.2-18.3-15.6-25.4-16.9-27.5-2.5-4.1-2.8-4-48.8 23.9-25.4 15.4-46.8 28.1-47.5 28.1s-5.2-6.4-9.7-14.1c-4.7-7.7-10.2-17.1-12.3-20.8l-3.8-6.9c78.6-46.3 101.4-60.3 101.3-61.1 0-.7-3.8-8.1-8.5-16.3-4.8-8.2-9-14.8-9.5-14.8-.6.2-30.5 17.9-66.5 39.5zm980.8 46c-25.2 42.1-50.6 84-56.4 93.1-5.9 9.3-10.6 17.4-10.7 18.1 0 .7 15.6 10.8 34.9 22.4 19.2 11.5 44.7 26.6 56.7 33.3 13.5 7.6 26.1 13.2 33.4 15 9.7 2.3 13.5 2.4 21.8.6 5.5-1.1 13.6-4 18-6.1 4.4-2.3 11.7-7.6 15.9-11.8 4.3-4.2 9.7-11.9 12.1-17.2 2.4-5.2 4.9-13.1 5.6-17.7.8-5.3.2-11.5-1.6-18-1.6-5.5-5.3-13.5-8.4-17.7l-5.5-7.7c13.3-1.6 20.6-3.2 24.5-4.6 4-1.4 10.8-5.6 15.1-9.4 4.4-3.8 9.9-10.8 12.3-15.5 2.3-4.7 4.8-13.2 5.4-19 .7-7.1.2-13.6-1.7-20.3-1.9-6.7-5.4-13-10.8-19.1-4.4-4.9-15.3-13.9-24.2-20.1-8.9-6-30.4-19.4-47.8-29.6-17.4-10.2-34.1-20.2-37.3-22l-5.6-3.4"/><path fill="#006CB5" d="M1744.6 923.5c-6.7 11.4-12.1 21.4-12.3 22.1 0 .7 6.4 4.9 14.1 9.4 7.8 4.3 18.1 10.6 23.2 13.7 4.9 3.2 13.1 7.3 18 9.1 7.8 2.8 10.2 3 16.8 1.2 5.3-1.6 9.1-4.2 12.6-8.9 3.8-5 4.9-8.7 4.9-15.3 0-7.6-.8-9.6-6.2-15-3.5-3.5-18-13.2-32.2-21.8-14.2-8.5-26-15.5-26.2-15.4-.2.1-5.9 9.5-12.7 20.9zm-34.4 59.2c-1.6 2.3-8.2 13-14.9 23.8-6.6 10.8-12 20.2-12 20.8.1.7 10.1 7.5 22.4 15.1 12.3 7.6 26.7 16 32.2 18.5 5.4 2.5 13 4.6 16.7 4.6 3.7.1 9.3-1.2 12.3-2.6 3-1.4 7.6-6.1 10.2-10.5 3.2-5 4.8-10.1 4.8-14.9-.1-4-1.3-9.6-2.8-12.6-1.4-3-5.6-7.9-9.1-10.9-3.5-2.9-17.2-11.9-30.4-19.8-13.1-8.1-24.5-14.8-25.2-15-.9-.5-2.7 1.2-4.2 3.5z"/><path fill-rule="evenodd" clip-rule="evenodd" fill="#FEFEFE" d="M553 982.3c.4 0 6.9 5 14.3 11.3 7.5 6.2 13.6 11.7 13.6 12.3.1.5-8.9 11.7-19.8 24.9-18.1 21.6-19.7 24.3-17.4 27.2 1.4 1.7 32.3 28 68.7 58.3 36.3 30.4 66.1 55.9 66.2 56.6 0 .7-5.4 8.1-12 16.2-6.6 8.3-12.5 15.6-13.1 16.5-.6.8-32.7-24.6-71.3-56.5-38.6-32-70.8-58.1-71.5-58.1-.7.1-10.3 11.1-21.3 24.4-10.9 13.3-20.3 24.3-20.8 24.3s-7-5.4-27.8-24.3l55.6-66.6c30.7-36.6 56.1-66.5 56.6-66.5zm687 14.8c15.4-.2 39.4.5 53.4 1.4 13.9 1 32.7 2.6 41.7 3.7 8.9 1.1 26.1 3.6 38 5.5 12 2 34.7 6.7 50.7 10.6 16 3.8 39.5 10.5 52.5 14.7 13 4.1 34.5 11.9 48 17.2 13.5 5.3 33.9 14.1 45.3 19.5 11.4 5.3 31.4 15.6 44.3 22.8 13 7.3 34.1 20.2 47.1 28.7 12.9 8.4 31.6 21.6 41.6 29.2 10 7.5 25.5 19.8 34.4 27.3 9 7.5 27.6 24.5 66.5 62.5l-6 1.1c-3.4.6-22.4 4.2-78.5 15l-15.4-13.9c-8.5-7.6-24-20.4-34.5-28.6-10.5-8.2-28.4-21-39.8-28.7-11.4-7.7-28.1-18.3-37.1-23.6-8.9-5.2-27.3-15-40.7-21.8-13.5-6.7-38.3-17.7-55.2-24.4-16.9-6.7-43-15.7-57.9-20-15-4.3-37-9.9-48.9-12.4-12-2.5-33.2-6.2-47.1-8.3s-38.8-4.6-55.2-5.8c-16.8-1.1-43.4-1.6-60.7-1-16.9.6-39.3 1.9-49.8 3-10.5 1-31.7 4-47.1 6.5-15.5 2.5-40.3 7.8-55.3 11.7-14.9 3.7-36.1 9.9-47 13.6-10.9 3.6-30.2 10.7-42.5 15.7-12.5 5-33.7 14.7-47.1 21.3-13.5 6.7-31.7 16.6-40.7 21.8-9 5.3-24.9 15.3-35.3 22.2-10.5 7-25.5 17.7-33.5 23.7-7.9 6-20.3 15.9-27.5 21.9-11.1 9.1-13.2 11.8-13.1 16.3 0 4.1-1.1 6-4.6 7.7-2.9 1.4-4.3 3.5-3.8 5.4.4 1.8 4.1 13.8 8.3 26.7 4.2 13 12.5 39.9 18.4 59.7 6 20 14.8 51.3 19.6 69.7 4.8 18.4 11.7 45.8 15.1 60.7 3.6 14.9 9.9 43.4 13.9 63.3 4 20 9.7 50 12.7 66.9 2.9 16.9 7.3 44.6 9.7 61.5 2.4 16.9 6.1 45.1 8.2 62.5 1.9 17.4 4.8 46.3 6.4 64.2 1.4 17.9 3.5 48.1 4.4 67.1 1.1 18.9 2.3 52.3 2.9 74.2.6 21.9.2 64.7-.8 95.1-1.1 30.3-3.1 71-4.6 90.5-1.6 19.4-3.6 43.4-4.7 53.4s-2.3 18.5-2.8 19c-.4.5-1.1.5-1.4 0-.4-.5-25.6-217.9-56.2-483.3-30.5-265.3-55.6-482.6-55.9-482.9-.1-.2-19.6 1.8-43.1 4.6-23.6 2.8-43.3 5.4-44 5.9-.6.5 33.2 298.3 75 661.6s76.3 660.9 76.6 661.3c.2.2 20.1-1.7 43.9-4.4 23.9-2.6 43.7-4.9 44-5 .2-.1-6.9-64.5-15.9-143.1-9-78.7-16.7-145.3-17.2-148-.8-4.6 0-5.5 9.5-10.2 5.6-2.9 19.4-9.1 30.3-13.8 10.9-4.7 29.7-12.1 41.7-16.6 11.9-4.4 33.9-11.5 48.8-15.9 15-4.4 39.4-10.5 54.3-13.5 15-3 37-6.7 48.9-8.3 12-1.6 36.1-3.6 53.5-4.7s42.7-1.6 56.1-.8c13.5.6 34.1 1.9 46.2 2.9 11.9 1 35.6 3.7 52.5 6.2 16.9 2.4 47 7.7 66.9 11.8 20 4 63.1 14.2 96 22.6 32.8 8.4 80 20.6 104.9 27 25 6.6 45.6 12.3 45.8 12.7.2.5-7.1 6.5-16.3 13.2-9.1 6.9-22.8 16.5-30.3 21.5-7.5 4.9-21.8 13.8-31.7 19.6-10 5.9-31.1 16.9-47 24.6-16 7.6-39.2 17.7-51.7 22.4-12.4 4.6-32 11.1-43.4 14.4-11.5 3.4-30.3 8.2-41.7 10.7s-32.2 6.2-46.2 8.3c-13.9 2-38.8 4.6-55.3 5.6-16.3 1.1-41.6 1.4-56.1.7-14.4-.6-37.3-2.3-50.6-3.8-13.5-1.4-33.4-4.3-44.5-6.2-10.9-1.9-32.1-6.7-47-10.6-15-3.8-37.4-10.6-49.9-15-12.4-4.3-34-13-48-19.1-13.9-6.1-37.1-17.8-51.6-25.7-14.4-8.1-26.4-14.3-26.6-14.1-.2.2 1.2 13.1 3.1 28.6 1.8 15.4 3.4 29.9 3.5 32.1 0 3.4 3.8 6 23.1 15.6 12.7 6.3 33.3 15.6 45.8 20.7 12.4 4.9 31.4 12 42.1 15.6 10.7 3.6 30.3 9.3 43.4 12.7 13.2 3.5 35.1 8.3 48.4 10.7 13.5 2.5 36.3 6 50.7 7.7 19 2.3 39.8 3.2 75.2 3.2 35.1 0 56.5-1 76-3.2 15-1.7 37.7-5.2 50.7-7.7s33.3-7 45.3-10c11.9-3 31.1-8.5 42.5-12.4 11.4-3.7 28.5-9.9 38-13.6 9.5-3.7 30.3-13 46.2-20.7 16-7.7 37.1-18.7 47.1-24.5 10-5.9 27.5-16.9 38.9-24.5 11.4-7.7 29-20.3 38.9-28.1 10-7.7 23.4-18.7 41.6-35l33.5 6c18.4 3.4 37.4 6.5 42.1 7.1 4.8.6 8.7 1.7 8.7 2.5.1.7-9.3 10.5-20.8 21.6-11.4 11.2-31.2 29-44 39.5-12.6 10.5-33.1 26.2-45.3 34.9-12.1 8.7-32.1 21.8-44.3 29.1-12.1 7.5-33.5 19.4-47.5 26.6-13.9 7.2-36.8 18-50.7 23.9-13.9 6-38.8 15.4-55.2 20.9-16.5 5.5-43.4 13.2-59.7 17.3-16.5 4-39.7 8.9-51.7 10.9-11.9 2-32.3 4.9-45.2 6.5-13 1.6-43.1 3.4-67.1 4-26.4.6-54.4.1-71.5-1.1-15.4-1.2-39.4-3.8-53.4-5.9-13.9-1.9-37.3-6-51.7-9.1-14.4-3-38.7-9-53.8-13.5-15.1-4.3-39.2-12.3-53.4-17.7-14.2-5.3-31.5-12.3-38.5-15.4-7-3.1-13-5.4-13.2-5.2-.4.2 1.9 22.4 4.9 49.3 3 26.9 5.5 50.5 5.5 52.5 0 3.4-3.4 4-55.6 10.1-30.6 3.6-55.9 6.5-56.1 6.4-.1-.1-5.3-42.9-22.2-190.3l-4.9-3.6c-2.8-2-12.7-9.6-22.2-17.1-9.5-7.3-24.9-20.1-34.4-28.2-9.5-8.3-29.1-27-43.5-41.8-14.4-14.8-33.3-35.5-41.8-45.9-8.7-10.5-22.7-28.8-31.4-40.7-8.8-11.9-22.5-32.3-30.5-45.2-8.1-13-20.9-35.8-28.6-50.7-7.7-14.9-19-38.8-25-53-6.1-14.2-15-37.7-20.1-52.4-4.9-14.8-12.3-39.4-16.2-54.8-4-15.4-9.3-39.1-11.7-52.5-2.5-13.5-6-36.2-7.8-50.6-2.5-20.6-3.2-39.4-3.2-86.9 0-47.5.7-66.3 3.2-86.9 1.8-14.4 5.3-37.3 7.8-50.7 2.5-13.5 7-34.1 10-46.2 2.9-11.9 8.7-32.3 12.7-45.2 4-13 12.3-36.2 18.3-51.7 6-15.4 18.9-43.5 28.5-62.4 9.5-19 24-45 32.1-57.9 8.1-13 21.8-33.3 30.4-45.3 8.8-11.9 23.2-30.6 48.4-61.5l-1.6-13.1c-1.3-11.1-1.2-13.2 1.1-13.9 1.6-.4 8.9-1.3 29.9-3.2l14.4-13.9c8.1-7.6 20.7-19.2 28.1-25.7 7.5-6.5 21.8-18.1 31.7-26 9.9-7.7 30.6-22.5 46.2-32.7 15.4-10.2 38.6-24.5 51.6-31.7 13-7.2 35.3-18.6 49.8-25.2 14.5-6.7 37.3-16.2 50.7-21.3 13.5-5 34.3-12.1 46.2-15.7 12-3.6 29.6-8.4 38.9-10.8 9.5-2.4 27.9-6.4 40.7-8.8 13-2.5 33.8-5.9 46.3-7.5 12.4-1.7 32-3.7 43.4-4.4 11.5-.8 33.4-1.5 49-1.6zm729.7 18.4c.6.1 24.3 26 52.5 57.3 28.4 31.5 52.8 58.5 54.2 60.3 2.5 2.9 1.7 4.1-10 14.8-7 6.4-13.5 11.5-14.4 11.5-1.1 0-19.4-19.5-40.7-43.3-30.6-33.9-39.5-42.8-41.7-41.5-1.4.8-9.7 8.4-34.1 31.5l74 81.5-9.5 8.7c-5.3 4.8-11.5 10.2-18.6 15.5l-31.6-35.3c-17.4-19.5-33.9-38-41.2-46.8l-22 20c-12.1 10.9-22 20.3-22 20.8s16.8 19.7 37.4 42.5c20.6 23 38.7 43 40.4 44.8 2.6 3 2.5 3.6-2.5 8.8-3 3-9.4 8.8-22.7 19.7l-55.2-61.5c-30.4-33.9-55-62.3-54.8-63.1.2-1 36.8-34.3 81-74.2 44.3-39.8 81.1-72.3 81.5-72zm-707.2 103.7c17.9.5 42.8 2 55.3 3.5 12.4 1.4 29.9 3.8 38.9 5.4 8.9 1.6 27.6 5.5 41.6 9 13.9 3.4 35.9 9.7 48.9 14.1s30.4 10.7 38.9 14.1c8.4 3.4 27.2 11.9 41.6 19s34.9 18 45.3 24.3c10.5 6.2 26.3 16.5 35.3 22.7 8.9 6.2 24 17.2 33.4 24.5 14.9 11.4 16.7 13.3 13.6 14.7-1.9.7-17.1 4.2-33.4 7.7-16.5 3.5-40.1 8.1-52.5 10.1-12.5 2.2-33.7 5-47.1 6.4-13.5 1.4-38.5 2.6-55.6 2.6-17.8 0-40.5-1.2-52.5-2.8-11.7-1.4-30.3-4.9-41.2-7.5-10.9-2.6-24.4-6.4-29.8-8.2-5.5-1.9-20.2-5.2-32.7-7.1-12.4-1.9-33.2-6-46.2-9.1-12.9-3.1-47.6-12.7-76.9-21.6-29.3-8.8-64.8-18.7-78.7-22.2-13.9-3.6-35.9-8.2-48.9-10.5-19.4-3.2-31-4-65.3-4.1-22.8-.1-47.7.5-55.2 1.3-12.1 1.3-13.3 1.2-10.8-1.2 1.4-1.6 14.9-9 29.8-16.6 14.9-7.5 39.4-18.5 54.3-24.3 14.9-5.9 36.5-13.5 48-16.9 11.5-3.5 31.8-8.8 45.3-11.9 13.5-3 36.3-7.2 50.7-9.3 14.4-2.2 36.8-4.6 49.8-5.4 13-.8 38.2-1.2 56.1-.7zm-838.3 71.7c9.9.4 15.3 1.8 24.4 6.4 6.5 3.1 15.3 9.3 19.6 13.5 4.2 4.2 9 10.6 10.6 14.1 1.7 3.5 3.8 10.6 4.9 15.9 1.7 7.6 1.4 12.4-.7 23.1-1.4 7.5-2.3 13.5-1.8 13.6.6 0 6.6-2.4 13.6-5.3 7.9-3.2 18.9-6 29-7.2 9-1 30.2-2.4 77.9-4.4l-4.8 8.1c-2.6 4.3-8.8 14.9-22.4 38.7l-37.1 2.9c-20.3 1.6-41.1 3.5-46.2 4.2-4.9.7-12.7 2.4-17.2 3.7-4.8 1.6-10.2 4.9-13.3 8.5-2.9 3.4-7.1 9.9-9.5 14.7-2.4 4.7-4.1 8.8-3.8 9.1.2.4 17.5 10.2 38.5 22 20.9 11.7 38.5 21.6 38.9 22.1.5.5-3.6 9.3-9 19.7-5.5 10.3-10.6 18.9-11.3 18.9-.8 0-21.6-11.2-46.3-24.8-24.6-13.5-66.8-36.9-93.6-51.8-26.9-15-49.6-27.8-50.5-28.2-.8-.6 9.7-21.9 23.3-47.2 13.7-25.4 28.2-51.1 32.3-57.1 4.1-5.9 11.1-14.3 15.6-18.6 4.4-4.2 12.3-9.4 17.2-11.3 6.6-2.9 12.4-3.6 21.7-3.3z"/><path fill="#006CB5" d="M406.1 1240.8c-3.8 2.3-10.6 12.4-22.6 33.7-9.5 16.7-17.1 30.9-16.9 31.5.1.7 10.7 7.1 23.4 14.2 23.1 12.7 23.4 13 26.1 9.3 1.4-2 8.3-13.6 15-25.6 6.7-12.1 13.5-26.2 14.9-31.5 1.4-5.2 2.2-11.3 1.7-13.6-.6-2.2-2-6-3.2-8.3-1.1-2.4-5.4-6.2-9.4-8.5-4.7-2.8-10.1-4.3-15.4-4.3-4.8-.1-10.4 1.2-13.6 3.1z"/><path fill="#FEFEFE" d="M1799.7 1266.1c-3 12.6-7.3 32-9.6 42.9l-4.1 20c19.8 26.7 30.9 42.5 37.4 52.5 6.6 9.9 16.6 26.2 22.2 36.2 5.8 10 13.5 24.2 17.3 31.6 3.7 7.5 11.8 25.5 18 39.9 6.1 14.4 15.1 38 20 52.4 4.8 14.5 11.2 36.1 14.2 48.1 3.1 11.9 7.6 32.7 10.1 46.2 2.4 13.3 5.9 37 7.6 52.4 1.9 18.3 3 43.3 3.1 71.5 0 23.9-1 52.9-2.2 64.3-1.2 11.4-3.4 29.3-4.9 39.8-1.6 10.5-5.5 31.6-9 47.1-3.4 15.4-9.5 39.1-13.6 52.4-4.1 13.5-12.4 37.1-18.5 52.5-6.1 15.5-16.6 39.1-23.2 52.5l-12 24.4c5.4 25.2 9.7 47.7 13.1 66.1 3.5 18.4 6.5 33.8 6.7 34 .4.2 5.5-7.1 11.5-16.3 6.1-9.3 15.4-24 20.7-33.1 5.2-9 15.9-29 23.6-44.3s19.4-41.5 25.8-57.9c6.6-16.5 16-43.3 20.9-59.7 4.9-16.5 11.5-41.2 14.5-55.2 3-13.9 6.7-33.1 8.3-42.5 1.6-9.5 4-28.2 5.5-41.7 1.6-13.3 3.2-41.1 3.8-61.5.7-22.1.2-49-1-66.9-1.2-16.5-3.4-39.2-4.8-50.7-1.4-11.4-4.7-31.7-7.2-45.2-2.5-13.5-7.5-35.2-10.8-48.4-3.5-13.2-8.8-32-11.9-41.6-3.1-9.7-10.9-31.1-17.4-47.6-6.5-16.3-17.9-42.1-25.4-57-7.6-14.9-17.3-33.7-21.9-41.6-4.4-8.1-16.6-27.2-26.8-42.5-10.2-15.5-25.4-36.8-33.7-47.4-8.3-10.6-20.9-25.8-28-33.9l-13-14.5m-45.4 22.4c-7.5 1.4-44.6 9.5-82.4 17.9-37.9 8.3-79.8 17.2-93.3 19.6-13.5 2.5-35.8 6-49.8 7.7-17.8 2.3-37.7 3.2-66.9 3.2-30.9 0-47.1-.7-62.5-3.1-11.4-1.8-29-5.2-38.9-7.7-10-2.4-24.3-6.4-31.7-8.9s-15.7-4.6-18.5-4.6h-5c0 159.2.6 208.2 1.4 211.4l1.3 5.9 432.8-.1c3.6-45.6 6.2-71.4 8.2-86.9 1.9-15.4 5.6-40.6 8.2-56 2.6-15.5 7.9-43.6 12-62.5 4-18.9 7.6-35.5 8.1-36.7.4-1.4-1.1-2.2-4.3-2-2.9.1-11.2 1.4-18.7 2.8zm-708.8 11.7c-7 .8-18.4 3.2-25.4 5.4s-17.7 6.4-23.6 9.4c-6 3-14.5 7.9-19 10.9-4.6 3.1-13.8 10.9-20.6 17.4-6.9 6.6-16.3 17.2-21 23.7-4.8 6.5-11.2 16.2-14.3 21.8-3 5.4-8.1 16-11.2 23.4-3.1 7.6-7.7 21.8-10.2 31.7-3.6 14.3-4.8 24.3-5.6 48-.7 23.9-.2 33.5 2.3 48 1.8 10 5.4 25 8.2 33.5 2.8 8.4 7.6 20.7 10.8 27.2 3.2 6.4 9.5 17.2 13.8 23.9 4.3 6.7 13.8 18.5 21 26.1 7.2 7.6 18 17.3 24 21.5 6 4.3 16.9 10.7 24.4 14.3 7.5 3.5 20.2 8.1 28.1 10.2 10.5 2.6 20.1 3.7 34.4 3.7 13.9 0 24-1.1 33.5-3.5 7.5-2 18.9-6 25.4-8.9 6.5-2.9 16.6-8.5 22.6-12.6 6-4 15.6-11.7 21.5-17.1 5.9-5.4 15.5-16.2 21.5-24.3 6-7.9 15.3-23.4 20.6-34.4 6.1-12.5 11.9-28 15.5-41.6 5.4-20.4 5.6-23.8 5.9-55.3.1-26-.6-36.9-3.1-48.8-1.8-8.5-5.4-21.5-7.9-29s-8.8-21.6-13.9-31.5c-5-9.9-14.2-24-20.3-31.6-6.1-7.7-15.9-18-21.8-23.1-5.9-5.2-16-12.7-22.5-16.8-6.4-4.2-17.8-9.9-25.4-12.7-7.5-2.9-18-6-23.4-7.1-5.5-1-14.9-2.2-20.9-2.6-5.9-.4-16.5-.1-23.4.8zm1085.4 62.5c-24.4 9.4-68.7 26.4-98.7 38-29.8 11.5-55.3 21.5-56.4 22.2-1.4.7 5.4 20 21.3 60 12.9 32.3 26.2 63.1 29.7 68.3 3.7 5.6 10.3 12.1 15.9 15.7 5.2 3.5 13.6 7.2 18.5 8.4 5.5 1.3 14.1 1.8 21.8 1.1 7.7-.7 16.2-2.9 21.8-5.5 4.9-2.4 11.7-7.3 14.9-10.9 3.2-3.6 7.7-10 9.7-14.2 2.2-4.2 4.4-12.4 5-18.1.6-6.5 1.9-10.3 3.4-10.3 1.2 0 2.6.8 3.1 1.8s4.3 3.6 8.7 5.8c6 3.1 10.8 4 22.1 4.1 12.1 0 16-.7 23.6-4.7 5-2.5 11.8-7.8 15-11.7 3.2-4 7.7-10.8 9.9-15.3 3.1-6.2 4-11.2 3.8-21.8 0-9.6-1.4-17.4-4.8-27-2.5-7.6-12.4-33.5-21.8-57.9-10.1-26.4-18.1-44.5-19.6-44.7-1.4-.3-22.5 7.2-46.9 16.7z"/><path fill="#006CB5" d="M667.5 1378.1c-8.4 12.7-19.2 29.7-23.8 37.7-4.6 7.9-15.3 28.7-23.7 46.2-8.4 17.4-19.5 42.7-24.4 56.1-5 13.3-12.1 34.6-15.7 47-3.5 12.5-8.9 33.3-11.8 46.2-2.9 13-6.9 35-8.8 48.9-2 13.9-4.7 37.5-5.8 52.5-1.3 16.6-1.8 41.8-1.1 65.1.6 20.9 2.3 48.6 3.8 61.5 1.6 13 4.4 32.9 6.5 44.3s6.6 32.2 10.1 46.2 10.5 37.5 15.5 52.5c5 14.9 12.9 35.7 17.3 46.2s14.1 30.8 21.4 45.2c7.3 14.4 18.7 35.2 25.4 46.2 6.6 10.9 17.8 28.1 24.9 38 7.1 10 17.3 23.9 22.7 30.8 5.5 7 18.1 22 28.2 33.4 10 11.3 28 29.9 39.9 41.2 20.8 19.7 21.8 20.4 22.2 15.5.2-2.8-1.3-21.4-3.6-41.3l-4.1-36.3c-18.1-19.5-29.6-32.8-37-42.3-7.6-9.5-19.2-24.9-25.8-34.4-6.6-9.5-17.8-27-24.9-38.9-7.2-11.9-17.8-31.5-23.6-43.4-5.9-12-14.3-30.8-18.7-41.7-4.6-10.9-11.2-28.8-14.8-39.8-3.6-10.9-9.4-30.9-12.9-44.3-3.4-13.5-8.2-36.7-10.7-51.6-2.4-15-5.3-36.5-6.2-48-1.1-11.5-1.9-38-1.9-58.9s1.2-49.4 2.8-63.3c1.4-13.9 4.3-34.7 6.4-46.2s5.8-29.3 8.3-39.8c2.6-10.5 7.3-27.6 10.6-38.1 3.2-10.5 9-27 12.7-37 3.7-10 11.5-28.4 17.2-40.7 5.8-12.5 14.8-30.5 20.2-40.3l9.7-17.5c-6.6-59.7-9.1-77.8-9.9-78.6-.5-.8-8.1 8.9-16.6 21.7zm330.8-18.5c-6 1.3-14.2 3.7-18.1 5.4-4 1.6-7.5 2.9-7.7 2.9-.2 0-.4-1.3-.4-2.9.1-2.3-1.3-2.6-8.7-1.6-4.7.7-8.8 1.3-8.9 1.4-.1.1 6.6 59.3 14.9 131.5 8.3 72.1 15.1 131.5 15.1 131.7s3.1.4 6.9.4c3.7 0 7.7-.6 8.8-1.3 1.6-1 1.1-9.3-1.3-30.3-2.6-23.1-2.9-29.2-1.1-30.4 1.2-.7 10-3.8 19.5-6.9 11.3-3.6 22.7-5.9 33.5-6.6 9-.6 22.7-.1 30.8 1.1 7.9 1.1 30.8 6 50.6 10.9 20 4.8 41.9 9.4 48.9 10.1l12.7 1.2c-2.3-20.6-6.9-44-11.8-65.5-4.9-21.4-9.9-48.2-11.1-59.7-1.6-15.9-1.6-25.7 0-41.6 1.2-11.4 3.2-25.7 4.6-31.7 1.4-5.9 2.2-11.2 1.7-11.7-.5-.6-7.6.5-15.7 2.3-8.2 1.8-23.3 4.7-33.8 6.2-18 2.8-20 2.8-35.3-.4-9-1.8-26.1-6-38-9.4-12-3.2-27-6.4-33.5-6.9-6.9-.4-16.4.3-22.6 1.8z"/><path fill="#FEFEFE" d="M1150.3 1374.2c-10.9 2.3-25.6 4.8-32.6 5.4-8.9.8-16.3.4-24.9-1.7-6.7-1.6-12.6-2.9-13.1-2.9-.6 0-1 9.7-1 21.8v21.6h88.7c.1-13.3 1.6-24.3 3.2-32.9 1.9-9.6 2.4-15.9 1.3-15.7-.8.1-10.7 2-21.6 4.4zm-128.6 0c-4 1.4-9.5 4.9-12.4 7.6-2.9 2.8-6.7 8.3-8.5 12.3-2.2 4.6-3.4 11.3-3.4 18.1 0 7.1 1.2 13.7 3.7 19 1.9 4.4 5 9.6 6.7 11.5 1.7 1.8 6.1 4.8 9.9 6.7 3.7 1.9 9.1 3.4 12.1 3.4s8.2-1.1 11.3-2.4c3.2-1.3 9-6 12.7-10.3 4.3-5.2 7.5-11.3 8.8-17.1 1.2-4.9 1.6-12.5 1-16.7-.6-4.3-2.6-10.8-4.6-14.5-1.8-3.7-5.9-9-9-11.8-3.1-2.6-8.8-5.8-12.5-6.7s-7.2-1.8-7.7-1.7c-.4 0-4 1.2-8.1 2.6zm-48 3.5c0 1.1 4.1 38.6 9.3 83.3 5 44.8 9.6 82.7 10.2 84.3.6 1.4 1.8-1.8 2.8-7.3.8-5.4 1.2-22.6.7-38-.6-15.4-2.3-37-3.8-48-1.6-10.9-5.8-31.7-9.4-46.2-3.5-14.4-7.1-27-8.1-28.1-1.2-1.2-1.7-1.2-1.7 0z"/><path fill="#006CB5" d="M2145.3 1384.3c-10.5 4.1-20.4 7.7-22.2 8.1-1.7.5-3.1 1.6-3.1 2.6s4.8 14.2 10.8 29.3c6.7 17.3 13.1 30.3 16.7 34.6 5.2 6 7.2 7.1 15 7.8 7 .6 10.3 0 14.9-2.9 3.2-2 7.1-5.6 8.5-7.8 1.6-2.3 3.2-7 3.7-10.5.8-4.9-1.4-12.9-10.6-37-6.4-16.9-12.4-31-13.2-31.2-.8-.2-10 2.9-20.5 7z"/><path fill="#FEFEFE" d="M1774.2 1399c-.1.8-1.7 15-3.6 31.7-1.9 16.7-4.4 42.3-5.4 57-1.1 14.8-1.9 50.6-1.9 79.7s.8 64.3 1.8 78.2c1.1 13.9 3.1 36.8 4.7 50.7 1.4 13.9 4.8 38.8 7.3 55.2 2.5 16.5 7.7 45.8 11.5 65.3 3.8 19.4 11.4 54.4 16.9 77.8 5.5 23.4 14.2 59.3 19.2 79.7 5 20.4 9.5 37.5 10 38s2.5-3.1 4.6-8.2c2.2-4.9 7.5-19.2 12-31.6 4.4-12.5 11.3-34.9 15.1-49.8 3.8-15 8.7-35.7 10.6-46.2 2-10.5 5-30.9 6.9-45.3 2.3-18.9 3.2-39.1 3.1-72.4 0-33.1-.8-53.5-3.1-71.5-1.8-13.9-6-39.2-9.4-56.1-3.5-16.9-9.6-41.8-13.7-55.2-4-13.5-11.9-35.9-17.4-49.9-5.5-13.9-15.3-35.9-21.8-48.8-6.5-13-17.8-33.8-25.1-46.2-7.5-12.5-15.5-25.1-17.9-28.1-2.4-2.9-4.4-4.7-4.4-4z"/><path fill="#006CB5" d="M2057.6 1418c-17.2 6.5-26.8 11.1-26.7 12.6.1 1.3 5.4 15.3 11.7 30.9 6.1 15.6 12.9 30.9 14.9 33.9 1.9 2.9 6.5 7.2 10 9.5s8.8 4.2 11.8 4.2 9-1.9 13.6-4.1c4.4-2.3 10-7 12.4-10.5 3.6-5.4 4.1-7.8 3.2-16.3-.5-5.4-4.6-20.1-8.9-32.6-4.4-12.4-9.6-26-11.4-30.2l-3.5-7.6"/><path fill="#ED3237" d="m1079 1440 .7 21.5c28 3.4 48.3 4.9 63.1 5.5l26.8 1.3c-1.8-9.9-2.4-21-2.6-31.2l-.4-18.5-88.2-.1"/><path fill="#FEFEFE" d="M313.8 1439.5c-5 1.3-13.6 4.7-19 7.3-6 2.9-15.1 10-22.7 17.7-8.7 8.8-14.8 17.1-19.5 26.4-4 8.1-8.2 20.4-10.3 30.8-1.9 9.4-3.6 22.1-3.6 28 0 6 1.2 15.7 2.8 21.8 1.6 6 5.8 16.1 9.4 22.6 3.6 6.5 12.1 17.3 18.9 24 8.7 8.5 16.3 14.1 25.5 18.4 7.3 3.4 18.9 7.8 25.8 9.9 7 1.9 18 4.6 24.5 5.8 6.9 1.3 18.5 1.8 28 1.3 10.3-.6 20-2.4 26.2-4.8 5.5-2.2 14.3-6.7 19.5-10.2 5.3-3.5 13-9.9 17.3-14.3 4.2-4.3 10.7-13.1 14.4-19.5 3.8-6.2 9-18 11.5-26 2.5-7.9 5-21 5.6-29 .6-8.7.1-19.2-1.2-26.2-1.2-6.5-5-17.7-8.4-24.9-4.1-8.5-9.9-16.8-16.6-23.7-5.8-5.8-16.1-13.9-23.1-18s-18-9.1-24.5-11.3c-6.5-2.2-17.1-5-23.6-6.5-6.4-1.3-19.8-2.4-29.8-2.3-9.9 0-22.2 1.3-27.1 2.7zm723.4 20.8c-7.6.8-19.1 3.2-25.8 5.3l-12.3 3.6c.7 27.8 1.3 36.4 1.8 36.9.5.6 5.4.1 10.9-1.1 5.9-1.4 22.2-2.3 40.7-2.2 19.2 0 38.9 1.2 52.4 3.2 12 1.7 33.4 3.7 47.6 4.4 16.8.7 25.8.6 25.7-.6 0-1-1.1-6.2-2.5-11.8-1.4-5.5-3.5-14.4-4.6-20l-1.9-9.9c-42.8-2-64.5-3.7-76-5.3-11.5-1.4-25.7-3-31.7-3.5-5.9-.2-16.9.1-24.3 1z"/><path fill="#006CB5" d="M324.6 1481.8c-4 .8-10.5 3.1-14.4 5-4 2-10.5 6.9-14.3 10.7-3.8 3.8-9.1 11.4-11.8 16.9-3.5 7.3-4.8 13.6-5.4 24.4-.5 11.4.1 16.2 2.8 22.6 1.9 4.4 7.1 12.1 11.5 16.9 4.4 4.8 11.4 10.6 15.4 13 4 2.3 14.9 6.9 24.4 10.1 14.7 5 19.7 5.9 34.4 5.9 13.9 0 18.9-.7 25.8-4 4.7-2.2 12.5-7.5 17.2-11.8 5-4.7 10.3-11.9 13-17.7 2.4-5.5 4.7-14.8 5.2-21.5.6-8.1 0-14.7-2-20.8-1.6-5-5.3-12.5-8.3-16.8-3.1-4.2-10.6-10.9-16.8-14.9-6.2-4.1-17.4-9.3-24.9-11.7-7.6-2.5-18.5-5.3-24.5-6.4-5.9-1.1-12.9-1.8-15.4-1.7-2.6.4-7.9 1.1-11.9 1.8z"/><path fill="#ED3237" d="M1025.4 1502.8c-3 .5-9.5 1.7-14.5 2.6l-9 1.8c-3.1 41.3-4 53.6-3.8 53.8.1.4 6.2-1.4 13.8-4 7.5-2.4 18.9-5.4 25.4-6.4 6.4-1.1 17.1-1.9 23.4-1.9 6.5-.1 19.1 1.2 28.1 2.8 8.9 1.6 29 6 44.3 9.9 15.4 4 33.4 7.9 39.8 9 6.5 1 12.9 1.8 14.1 1.8 1.3 0 2.3-2.3 2.3-5.4 0-3-1.7-13.7-3.7-23.9s-4.4-21.4-5.4-24.9l-1.6-6.4c-41.6-2-62.1-4-72.6-5.4-10.5-1.6-31.6-3.1-47.1-3.5-15.5-.3-30.6-.2-33.5.1zm286.9 112v107.7c10.6 1.4 23.4 3 35.3 4.4 12 1.6 40.5 4.8 63.5 7.3 22.8 2.5 64.1 6.6 91.3 9 27.4 2.5 69 5.8 92.4 7.3 23.3 1.6 69 3.4 101.3 3.8 32.5.5 59.9.2 60.9-.6 1.4-1.1 1.1-7.9-1.3-25-1.8-12.9-4.7-38.2-6.5-56.1-2.5-26.1-3-45.7-2.6-99l.6-66.6h-435"/><path fill="#FEFEFE" d="M2056.3 1608c.2 11.8.8 22.2 1.1 23.2.4 1 11.7 5.4 25.1 10l24.5 8.2c1.7 46.3 2.4 66.1 2.6 74l.4 14.3-47.1 20.4c0 35.3.5 46.2 1 46.8.5.6 49.4-20.2 108.6-46.2 59.3-26.1 107.7-47.5 107.8-47.6.1-.1-.4-10.8-.8-23.7l-1.1-23.3c-166.9-58.5-217.1-76-219.1-76.6-3.5-.8-3.6-.1-3 20.5z"/><path fill="#006CB5" d="M2146.3 1691c.6 15.9 1.2 29 1.4 29.2.1.2 16.1-5.9 35.6-13.7 19.5-7.7 36.9-14.9 38.9-16 1.9-1 2.8-2.3 1.8-2.8-1-.6-17.7-6-37.1-12.3-19.4-6.2-36.8-11.7-38.5-12.3-3-.8-3.1 1.1-2.1 27.9z"/><path fill="#FEFEFE" d="M1124.9 1713.8c-10 .8-27.4 2.8-38.9 4.3-11.4 1.6-34.6 5.6-51.6 9-16.9 3.5-44.6 10.3-61.5 15.3-16.9 4.9-36.5 11.1-43.5 13.7-7 2.5-15 5.6-17.9 6.9l-5.3 2.2c1.9 22.5 3.6 45.3 5 65.3 1.4 19.8 3.2 55.5 4.1 79.2.8 27.4 2 42.7 3.2 42.3 1-.5 11.5-3 23.6-5.6 11.9-2.6 33.1-6.9 47-9.1 13.9-2.4 36.4-5.5 49.9-7.1 13.3-1.6 39.4-3.7 57.9-4.8 20.8-1.3 54.3-1.8 88.7-1.1 30.4.6 70.3 2.3 88.7 3.8 18.4 1.6 45.3 4.1 59.7 5.6 14.4 1.4 66.2 7.6 115 13.5s100.5 12 115 13.6c14.4 1.6 40.5 4.1 57.9 5.5 19.5 1.8 60.6 3.1 107.2 3.6 49.8.5 75.6.2 75.6-1 0-1.1-3.1-14.7-7.1-30.4-4-15.6-10.8-45.2-15.3-65.6-4.6-20.3-11.1-52.5-14.5-71.4-3.5-19-6.7-37.3-7.3-40.7l-1-6.4c-91.8-.2-136.7-1.7-163-3.5-25.5-1.7-71.9-5.4-103.2-8.3-31.4-2.9-79.1-7.8-105.9-10.8-26.9-3.1-65.6-7.9-86.1-10.8-20.4-2.9-47.5-6.1-60.2-7.2-12.6-1.1-40-1.8-60.7-1.7-20.4 0-45.5.8-55.5 1.7zm-855.9 7.1c-5.8 1-14.7 3.7-20 6.1-5.2 2.4-13.2 8.3-17.8 13.1-4.9 5.3-9.9 12.9-12.1 19.1-3.1 8.1-4 14.4-4 27.6 0 9.5 1.3 37 2.9 61.1 1.6 24.2 3 44.1 3.1 44.5.1.2 48.8-2.9 108-6.9 59.3-4.1 108.5-7.6 109.5-7.9 1.2-.5 1.6-8.4 1-21.5-.5-11.5-1.3-21.3-1.8-21.8-.5-.6-14.8.1-31.7 1.6-16.9 1.3-35.5 2.4-41.2 2.5h-10.3c0-12.6-1.2-28.2-2.8-42.9-2.4-23.6-3.5-28.2-8.9-39.4-3.7-7.9-9-15.3-13.9-19.7-4.3-3.8-12-8.9-16.9-11.3-5.5-2.5-13.7-4.6-20.8-5-6.6-.6-16.6-.1-22.3.8z"/><path fill="#006CB5" d="M267.6 1769.5c-3.5 1.9-7.8 5.8-9.5 8.5-1.7 2.9-3.6 8.8-4.2 13.3-.7 4.4-.6 18.7.1 31.6l1.2 23.6c23.6-2 37.5-3.4 46.2-4.1l15.6-1.3c-1.7-33.7-3.4-47.5-4.8-52.5-1.6-4.9-5-11.2-7.9-13.9-2.8-2.6-7.2-5.6-10-6.7-2.8-1.1-8.4-1.9-12.7-1.8-4.2 0-10.5 1.5-14 3.3z"/><path fill="#FEFEFE" d="M2063 1833.5c-.6 3.2-2 13-3.2 21.6-1.3 8.8-1.9 15.9-1.4 15.9.6 0 21.8 3.4 47.1 7.5 25.4 4.1 46.3 7.6 46.4 7.9.1.2-2.5 18.7-5.9 41-3.4 22.2-6 41.1-6 41.8-.1.8-2.3 1.4-5 1.3-2.8 0-24.2-3.1-47.5-7-23.4-4-42.8-7-42.9-6.9-.2.2-2 10.1-4 22-2 12-3.6 21.9-3.4 22.1.2.2 29 4.8 63.8 10.3 34.9 5.5 82.1 12.9 104.9 16.5 23 3.5 43.3 6.4 45.3 6.4 3.2 0 4-2.3 6.9-21.3 1.9-11.7 3.1-21.4 2.8-21.5-.4-.2-19.4-3.4-42.2-7-23-3.7-41.8-6.9-42.1-7-.2-.2 2.5-19 6-41.9 3.6-22.8 6.9-42.1 7.3-42.5.5-.5 18.1 1.8 39.2 5 21.2 3.2 40.3 5.9 42.4 5.9 2.3 0 4.1-.7 4.1-1.4.1-.7 1.4-10.2 3.2-21 2-12.5 2.5-19.8 1.3-20.2-1-.4-49-8.1-106.8-17.1-57.7-9-106-16.3-107.2-16.3s-2.6 2.6-3.1 5.9z"/><path fill="#ED3237" d="M1102.3 1924.6c-4.4.4-19.6 1.6-33.5 2.6-13.9 1.1-39.5 4-57 6.5-17.4 2.4-43.1 6.9-57.1 9.9-13.9 2.9-28.2 6-31.7 7.1l-6.2 1.7c-1.9 93.4-3.8 137.3-5.4 157.6-1.4 20.4-4.4 53-6.5 72.5-1.9 19.4-4 37.9-4.4 41.1-.5 3.2-.2 5.9.5 6 .7 0 9.1-3.4 18.5-7.6 9.5-4.1 29.1-11.9 43.5-17.2 14.4-5.4 37.3-13 50.7-16.8 13.5-3.8 33.8-9.1 45.2-11.7 11.5-2.5 31-6.3 43.5-8.3 12.4-1.9 32-4.6 43.4-5.9 11.5-1.2 42.9-2.2 69.7-2.2 26.9 0 59.1 1 71.6 2.3 12.4 1.2 34.4 3.8 48.8 5.9 14.4 1.9 44.6 7.2 67.1 11.8 22.4 4.4 67.5 15 100.5 23.4 32.8 8.3 80.2 20.6 105 27 24.9 6.5 61.5 15.4 81.5 19.8 19.8 4.4 50.5 10.5 67.9 13.5 17.4 3 41.8 6.6 54.3 8.2 12.4 1.4 29.3 3.4 37.6 4.2l14.9 1.3c-1.4-12.6-3.8-31.7-6.4-50.6-2.4-19-7.3-50.4-10.9-69.7-3.5-19.5-10.5-53.2-15.4-75.1-4.9-21.9-12.9-55.8-17.7-75.1l-8.7-35.3c-117.5-1.8-162.6-3.5-182.8-5.2-18.9-1.7-49.4-4.7-67.9-6.7-18.4-2-69.7-8.1-114.1-13.5-44.3-5.4-92.4-11.1-106.8-12.5-14.4-1.6-41.3-4.1-59.7-5.6-19.6-1.7-60.6-3.1-98.7-3.5-35.8-.3-68.8-.3-73.3.1z"/><path fill="#FEFEFE" d="M387.1 1928.8c-2.5.7-8.7 3.5-13.6 6s-12.3 7.8-16.2 11.7c-3.8 3.8-9.1 11.4-11.7 16.8-4.7 10-4.7 10.3-4.7 57.9 0 34.3-.7 49.4-2.3 53-1.2 2.8-4.9 6.3-8.2 7.8-3.2 1.7-7.7 2.4-10 1.8-2.2-.6-6.6-3.2-9.7-6-3.2-2.8-8.1-9.9-10.8-15.9-2.9-5.9-5.6-14.9-6.2-19.8-.7-5-.4-11.9.7-15.4s4.7-8.8 8.1-11.8c3.4-3 7.6-6.2 9.3-7.3 2.6-1.6 2.3-3.6-4.6-21.6-4.1-10.9-7.6-20.2-7.7-20.6-.1-.2-3.5.5-7.5 1.7-4.7 1.4-11.2 6.1-18.3 13.2-7.9 7.9-12.1 13.9-14.9 21.5-2.9 7.5-4 14.4-4 24.9 0 7.9 1.3 20 2.9 26.7 1.7 6.7 6.5 19.5 10.8 28.5 4.7 9.9 10.9 19.6 16.1 24.9 4.6 4.7 11.7 10.5 16 12.6 6.5 3.5 10.5 4.1 25.7 4.1 16.2 0 19.1-.5 27.2-4.8 5-2.6 11.7-7.5 14.9-10.8 3.1-3.4 7.9-10.9 10.7-16.9 3.2-7.1 5.3-15.4 6-24.4.6-7.5.5-26.6-.2-42.5-1-21.4-.7-31.1 1-37.1 1.7-5.9 4-9.3 8.5-12.3 3.5-2.3 8.9-4.1 12.1-4.1 3.2.1 8.5 1.2 11.8 2.5 3.2 1.4 8.1 4.9 10.7 7.7 2.8 2.9 7 9.7 9.6 15.3 2.5 5.4 5.2 14.4 5.8 19.8.7 6.1.2 12.7-1.2 17.2-1.2 4-4.4 10.1-7 13.6-2.6 3.4-8.2 8.3-12.3 10.8l-7.6 4.6c12.6 29.4 16.6 38.5 17.1 38.9.5.5 5.5-1.6 11.1-4.6 5.5-2.9 13.8-9 18.5-13.6 4.6-4.4 10.6-12.6 13.2-18 2.8-5.5 5.9-15.3 7-21.8 1.3-8.3 1.3-15.7 0-25.4-1.1-7.5-3.8-19.2-6.2-26.2-2.3-7-7-17.9-10.3-24.3-3.5-6.4-10.3-15.7-15.3-20.9-5-5.2-13.1-11.3-18.1-13.7-7.2-3.6-12.3-4.6-25.4-4.8-8.9-.2-18.3.2-20.8 1.1zM2008.3 2060c-3.8 11.4-6.6 21-6.1 21.5.6.4 23.8 8.7 51.7 18.4 27.9 9.7 74.2 25.7 102.8 35.6 47.1 16.2 52.2 17.5 53.6 14.7.8-1.7 4.2-11.1 7.7-20.7 3.4-9.6 5.8-17.9 5.2-18.3-.5-.4-31.8-11.1-69.7-23.9-37.7-12.7-84-28.7-102.8-35.6-18.6-6.9-34.3-12.4-34.6-12.4-.5.1-3.9 9.3-7.8 20.7zm-14 48.6c-1.4 2.3-6.7 11.1-11.7 19.5-5 8.5-8.5 16.2-7.7 17.2.7 1 8.1 10.2 16.2 20.3 8.1 10.2 14.8 19 14.8 19.5 0 .6-9.5 16.6-21.2 35.8-11.5 19.1-22 35.8-23.1 37-1.6 1.8-6.6 1.4-23.7-1.3-12-2-23.6-4.1-25.8-4.6-3.5-.7-5.6 1.7-15.9 18.1-6.5 10.5-11.8 19.8-11.8 20.8 0 1.1.2 1.8.5 1.8.2 0 44.8 7.3 99.2 16.2 54.2 8.9 105.5 17.2 114.1 18.4 8.4 1.2 16.6 1.8 18.1 1.3 1.4-.5 7.8-9.6 13.9-20.2l11.3-19.4c-55.4-70.8-87.6-112.4-107.2-138-19.7-25.6-36.2-46.6-36.7-46.6-.3.1-1.9 1.9-3.3 4.2zM497.5 2119c-8.7 5-15.1 10-14.8 11.3.4 1.2 8.4 15.3 18 31.2 9.5 15.9 23.3 38.7 30.6 50.6 7.3 12 13.1 21.9 12.7 22-.2.1-11.3 6.9-24.4 14.9-13.2 8.2-24.9 14.7-25.8 14.7-1 0-12.5-18-25.6-40.3-13.1-22.1-25.8-43.3-28.1-47l-4.2-6.9c-23.8 14.8-30.8 19.8-30.8 20.9.1 1 12.6 22.5 27.9 48l27.8 46.2-40.3 24.2c-4.9-6.1-18.6-28.7-33.8-54.1-15.1-25.4-27.6-46.4-27.6-46.6-.1-.4-7.3 3.5-16 8.5-8.8 5-15.9 10-15.9 10.9 0 1.1 18.4 32.6 41 70.2s41.1 68.5 41.2 68.7c.1.4 24.6-14.2 54.4-32.3 29.9-18 72.2-43.4 94.2-56.4 21.9-13 40.3-23.8 40.7-24.2.5-.4-18.5-32.8-42.2-72.2-23.6-39.3-43.1-71.4-43.4-71.4.1.1-7.1 4.2-15.6 9.1z"/><path fill="#006CB5" d="m2015 2241.6-14.7 24.9c10.6 2.3 29.3 5.9 48.4 9.6 19.2 3.6 34.9 6.3 34.9 5.8s-9.4-12.7-21-27.2c-11.5-14.4-23.2-28.8-25.7-32.1-2.6-3.2-5.4-5.9-6-5.9-.7.1-7.8 11.2-15.9 24.9z"/><path fill="#FEFEFE" d="M1739.7 2436.1c-6.2 2.4-13.2 7.2-18.5 12.6-4.8 4.8-10.2 12.3-12.3 16.5-1.9 4.2-4.3 12-5.4 17.2-1.3 6.7-1.3 12.5.1 20 1.1 5.6 3.6 13.5 5.4 17.2 1.9 3.7 6.5 10.1 10.2 14.2 3.8 4.1 11.8 9.7 17.7 12.6 9 4.4 13.1 5.4 24 5.3 8.4 0 16.5-1.2 22.6-3.5 5.3-1.9 13.5-7.1 18.4-11.3 5.5-5 10.8-12.1 14.4-19.6 4.9-10.1 5.6-13.6 5.5-25.4 0-10.8-1.1-15.7-4.9-23.9-2.6-5.8-8.3-13.9-12.5-18.3-4.3-4.2-11.8-9.7-16.8-12.1-6.9-3.4-12.5-4.6-23.6-4.9-11.3-.5-16.5.3-24.3 3.4zm-1039.4 19.3c-2.5.8-8.1 3.2-12.3 5.4-4.2 2.2-10.5 6.7-13.9 10.2-3.5 3.5-8.5 10.6-11.2 15.9-3.7 7.2-5 12.9-5.6 23.9-.6 12 0 16.3 3.5 25.4 2.8 7.3 7.1 13.8 13.2 20 6.2 6.2 12.7 10.6 20.1 13.3 6.9 2.6 14.8 4.2 21.6 4.3 6 0 15.4-1.4 20.9-3.4 6.6-2.3 13.1-6.4 19.6-12.5 5.5-5.2 11.7-13.3 14.4-19 3.7-8.1 4.7-12.7 4.8-24.5 0-11.8-.7-16.2-4.6-24.4-2.5-5.5-7.6-13.2-11.1-17.2-3.6-4-10.8-9.6-16.2-12.6-8.1-4.4-12.1-5.4-24.2-5.8-7.9-.2-16.5.2-19 1zM1461 2541c-12.3 3.4-13.5 4.1-13.1 8.1.1 2.4-1.1 8.2-2.6 13-1.6 4.7-6.4 13.8-10.7 20.3-4.2 6.5-12.9 16.6-19.2 22.5l-11.5 10.7c6.7 25.5 9 33.5 9.4 34.3s2.3.6 4.2-.5c2-1 9-6.9 15.6-13.1s14.4-14.8 17.2-19c2.9-4.2 5.9-7.7 6.6-7.7.7 0 10.3 33.9 21.3 75.2l20 75.2c8.4-1.3 17.5-3.6 25.8-5.9 8.3-2.4 14.7-5.2 14.3-6.1-.5-1-13.3-48.8-28.6-106.4-25.2-94.6-28.2-104.6-31.5-104.3-2.2 0-9.9 1.8-17.2 3.7zm-415.8 17.9c-5.5 5.6-13.9 11.5-21.6 15.3-7 3.4-17.2 7.3-22.7 8.8-5.4 1.6-12.7 3.2-16.2 3.7l-6.4 1.1c-6.5 27.4-8.2 35.6-7.8 35.9.2.2 5.4 0 11.4-.6s17.8-3.5 26.2-6.5c8.5-3 16.9-6 18.6-6.7 2.9-1.1 2.6 1-2.3 18.6-3 10.9-12.3 45.2-20.7 76.1-8.3 30.8-15 56.2-14.9 56.5.1.2 9.3 2.9 20.2 5.8 10.9 3 20.1 5.3 20.2 5 .2-.2 13-47.4 28.6-104.9 15.5-57.4 28.1-105.6 28-106.8-.1-1.4-5.6-3.7-14.1-5.8-7.6-1.8-14.7-3.6-15.7-4-.9-.4-5.8 3.5-10.8 8.5zm103.2 12.2c-5 1.7-12.6 5.6-16.9 8.5-4.3 3-10.6 8.8-13.8 12.7-3.2 4-7.6 10.9-9.6 15.4s-4.7 13.8-5.9 20.8c-1.7 9.4-1.8 16-.4 25.4 1 7 3.8 17.2 6.2 22.6 2.5 5.5 7.5 13.2 10.9 17.2 3.6 4 10.5 9.5 15.3 12.1 4.9 2.6 14.2 5.6 20.7 6.7 7.7 1.2 14.5 1.2 20 .1 4.4-1 12-4.2 16.7-7.2 4.7-3 9-5.4 9.5-5.4s-.4 6.4-1.9 14.1c-1.6 7.7-4.7 18-6.9 22.8-2.2 4.9-6.6 11.2-9.7 14.1-3.2 2.9-8.5 5.6-11.8 6.1-3.2.6-9.1 0-13.1-1.3-4.7-1.6-8.7-4.6-11.4-8.7-2.3-3.5-4.1-8.2-4.1-10.5 0-3.6-.8-4.1-8.5-4.1-4.8 0-14.2.6-20.9 1.3l-12.4 1.4c1.8 11.2 4.2 18.5 6.4 23.4 2.3 5 6.5 11.9 9.6 15.4 3 3.5 10.7 8.8 17.1 11.8 10.5 4.9 13.2 5.4 30.5 5.4 17.4.1 20-.4 30.8-5.4 6.5-3.1 15.5-8.9 20-12.9 4.4-4.1 11.2-13 14.8-19.8 3.7-6.9 8.3-19 10.3-27 2-7.9 4.7-23.4 5.8-34.4 1.2-11.2 1.6-27 1-36.2-.7-9-2.4-21.4-3.8-27.6-1.4-6.1-4.9-15.9-7.7-21.5-2.6-5.8-8.8-14.3-13.6-19.1-4.7-4.7-13.2-10.8-19-13.6-8.5-4-13.5-4.9-27.5-5.4-13.3-.4-19.8.2-26.7 2.8zm164.9-1.5c-4 .7-12 3.8-17.9 6.6-5.8 2.9-13.5 8.5-17.1 12.5-3.6 4-8.3 11.3-10.6 16.2-2.3 5-4.6 12.4-5.3 16.3-1.1 7.1-1.1 7.2 4.9 8.5 3.4.7 11.8 1.8 18.7 2.5l12.6 1.2c3.8-13.7 7.1-19.8 9.7-22.5 2.6-2.5 8.5-5.6 13-6.9 6.5-1.7 9.6-1.7 15.4.2 5.8 1.8 8.1 4 11.3 10.5 2.3 4.4 4.1 10.5 4.1 13.1 0 2.8-1.6 8.1-3.4 11.8-1.9 3.7-5.5 8.3-8.2 10-2.6 1.8-8.8 4.2-13.7 5.4l-8.9 2.3c-1.6 14.1-2 21.5-2 25.8v7.7c9.1-2.9 15.1-3.6 19.5-3.6 4.2 0 10.1 1.2 13.1 2.6 3 1.6 7.7 5.8 10.3 9.4 4.3 5.6 5.2 8.8 5.6 20.3.4 11.5-.1 15.1-3.7 21.9-2.6 5.4-6.6 9.6-11.4 12.3-4 2.2-10.2 4.1-13.9 4.1s-9.1-.8-11.8-1.9c-2.8-1.1-7.3-4.1-10.1-6.9-2.8-2.6-5.9-7.7-6.9-11.2-1.1-3.5-2.2-7.1-2.5-8.2-.4-1.1-5.5-1-14.8.5-7.8 1.2-16.8 2.6-20.1 3.1-5.5 1-5.9 1.3-4.8 6.9.6 3.2 3.2 10.2 5.9 15.6 2.6 5.3 8.7 13.2 13.3 17.7 4.8 4.3 13.3 10.1 19 12.9 9.6 4.6 12.3 5 32.2 5 20 0 22.6-.5 32.1-5 5.8-2.8 14.3-8.5 19-12.9 4.8-4.3 11.4-13.1 14.9-19.5 5.6-10.5 6.4-13.2 7-28.7.6-16.2.4-17.9-4.9-28.5-3.5-7.2-8.1-13.2-12.4-16.3-3.7-2.8-9.3-5.9-12.3-7.1-3-1.1-7-2.5-9-3.2-3.1-1-2.4-2.2 6.1-9.6 6.1-5.4 11.3-12.1 14.3-18.5 4-8.5 4.4-11.7 3.7-21.8-.6-6.4-2.4-14.5-4.2-18-1.9-3.5-6.7-10-10.9-14.5-4.7-4.9-12.1-10.1-19.2-13.3-8.7-4-14.9-5.4-25.1-5.8-7.3-.3-16.7.2-20.6 1z"/><path fill="#006CB5" d="M1159.3 2605.6c-5.4 2.4-8.3 5.5-11.7 12.3-3.8 7.6-4.6 11.4-4.6 26.1 0 13.7.7 18.6 3.6 24.2 2 3.8 6 8.5 9 10.5 3.6 2.2 9 3.4 15.9 3.4 8.9 0 11.3-.7 16.1-4.9 3.1-2.8 6.7-7.2 8.2-10 1.3-2.8 3.2-8.4 4.2-12.6 1.1-4.6 1.1-11.8.2-17.7-.8-5.5-3.1-13.2-4.9-17.1-1.9-4-5.9-9-8.9-11.3-2.9-2.4-8.7-4.7-12.6-5.2-4.9-.9-9.6 0-14.5 2.3z"/></svg>