<?xml version="1.0" encoding="utf-8"?>
<!-- Generator: Adobe Illustrator 25.0.1, SVG Export Plug-In . SVG Version: 6.00 Build 0)  -->
<svg version="1.0"
	 id="svg10" inkscape:export-filename="C:\Users\suitedoalex\Downloads\flamengo-logo-6.png" inkscape:export-xdpi="197.48572" inkscape:export-ydpi="197.48572" sodipodi:docname="flamengo-logo-2020.svg" xmlns:cc="http://creativecommons.org/ns#" xmlns:dc="http://purl.org/dc/elements/1.1/" xmlns:inkscape="http://www.inkscape.org/namespaces/inkscape" xmlns:rdf="http://www.w3.org/1999/02/22-rdf-syntax-ns#" xmlns:sodipodi="http://sodipodi.sourceforge.net/DTD/sodipodi-0.dtd" xmlns:svg="http://www.w3.org/2000/svg"
	 xmlns="http://www.w3.org/2000/svg" xmlns:xlink="http://www.w3.org/1999/xlink" x="0px" y="0px" viewBox="0 0 897.3 665.3"
	 style="enable-background:new 0 0 897.3 665.3;" xml:space="preserve">
<style type="text/css">
	.st0{fill-rule:evenodd;clip-rule:evenodd;fill:#070308;stroke:#FFFFFF;stroke-width:15.1302;}
	.st1{fill-rule:evenodd;clip-rule:evenodd;fill:#C3281E;}
	.st2{fill-rule:evenodd;clip-rule:evenodd;fill:#FFFFFF;}
</style>
<sodipodi:namedview  bordercolor="#666666" borderopacity="1" fit-margin-bottom="0" fit-margin-left="0" fit-margin-right="0" fit-margin-top="0" gridtolerance="10" guidetolerance="10" id="namedview12" inkscape:current-layer="svg10" inkscape:cx="450.24808" inkscape:cy="315.75282" inkscape:pageopacity="0" inkscape:pageshadow="2" inkscape:window-height="48" inkscape:window-maximized="1" inkscape:window-width="48" inkscape:window-x="-8" inkscape:window-y="-8" inkscape:zoom="0.77507996" objecttolerance="10" pagecolor="#ffffff" showgrid="false">
	</sodipodi:namedview>
<path id="path4-9" inkscape:connector-curvature="0" inkscape:export-filename="G:\Users\suitedoalex\sites\flamengo-logo-escudo-novo-7.png" inkscape:export-xdpi="323.9281" inkscape:export-ydpi="323.9281" class="st0" d="
	M448.7,587.7c61.2-25.8,113.5-67.8,150.1-123.4c35.2-53.3,55.7-116.6,55.7-181.7V77H448.7H242.9v205.6c0,65.1,20.4,128.4,55.7,181.7
	C335.2,519.9,387.5,561.9,448.7,587.7z"/>
<path id="path6-7" inkscape:connector-curvature="0" inkscape:export-filename="G:\Users\suitedoalex\sites\flamengo-logo-escudo-novo-7.png" inkscape:export-xdpi="323.9281" inkscape:export-ydpi="323.9281" class="st1" d="
	M434,92.1H258.7V248H434V92.1z M638.7,138.9h-190v61.9h190V138.9z M307.3,448.5H590c12.2-19.5,22.3-40.2,30-61.9H277.3
	C285,408.2,295.1,429,307.3,448.5z M258.7,262.8v19.3c0,14.3,1,28.6,3.1,42.6h373.8c2-14.1,3.1-28.3,3.1-42.6v-19.3H258.7z
	 M448.7,570.7c33.9-14.5,64.8-35.2,91.2-60.3H357.5C383.9,535.6,414.8,556.2,448.7,570.7z"/>
<path id="path8-1" inkscape:connector-curvature="0" inkscape:export-filename="G:\Users\suitedoalex\sites\flamengo-logo-escudo-novo-7.png" inkscape:export-xdpi="323.9281" inkscape:export-ydpi="323.9281" class="st2" d="
	M348.4,213.3v-10.7c-6.8,3.2-15.2,4.2-22.7,3.3c-20.8-2.7-34.2-19.4-34.2-40.1c0-19,12.3-36.9,31.6-36.9c7.8,0,15.1,3.7,18.4,12.7
	c3.1-6.7,3.5-21.2,0.9-27.6c-1.7-0.2-3.6-0.2-5.4-0.2c-7.6,0-14.9,1.4-21,3.6c-14.3,4.9-26.5,15.8-33.7,29.1
	c-4.9,9-7,17.1-12.7,17.1c6.4,28.1,26.7,51.5,56.7,53.1C333.6,216.8,340.9,215.8,348.4,213.3L348.4,213.3z M336.9,110.6
	c23.8,0,40,13.1,40,37c0,8.9-2.8,17.7-8.9,24h11.2c12.6-12.8,10.3-28.7,18.8-28.7c-11.7-29.3-28.1-43.5-64.7-42.6
	c-11,0.1-16.3,0.2-25.4-3.1l6.6,17.3C320.9,112.2,328.9,110.6,336.9,110.6L336.9,110.6z M329.1,219.6c-4.6,0-9.3-0.5-13.8-1.6
	c0,9.9-2.2,14.4-6.4,17.5c5.2,5.4,18.7,7.8,29.8,4.6C331.4,235.5,329.1,228.4,329.1,219.6L329.1,219.6z M403.9,168.8
	c-2.5,3.1-5.8,5.7-14,5.7h-24.7v-37.8h7.5c-1-4.1-2.9-7.8-5-11h-3.3c-6.3,0-12.3-0.9-18.5-3.3l5.4,14.2v37.7c6.6,2.1,11.1,6,15.9,11
	h15c8.5,0,11.8,5.7,11.1,13.6C408.4,191.1,405.9,173.7,403.9,168.8z M365.2,219.8v-9c-3.8-5.8-8.4-12.5-13.8-16.9v24.2
	c0,8.8-2.3,14.2-6.5,17.1c5.2,5.4,18.7,7.8,29.8,4.6C367.5,235.5,365.2,227.2,365.2,219.8z M418.6,118.3c-2.6,4.6-7.3,7.5-15.8,7.5
	h-10.1c2.1,3.4,4.1,7,6,11c8.1,0,10.4,8.6,9.3,13.6C423.4,142.5,420.6,123.2,418.6,118.3z M386.9,214.9c-7.3-8-14.3-21.8-27.2-32.4
	c-8.9-7.4-20.8-8.9-30.7-8.9v-40.9c-4.7-1.3-9.2-1-13.8,0.2v67.1c4.4,1.8,9.1,3,13.8,3.2V185c16.3,0,23.8,4.3,32.1,14.9
	c8.8,11.2,20.1,33.2,30.8,40.7c6.3-1.2,20.2-11.1,21.3-23.9C404.7,222.7,394.8,223.6,386.9,214.9L386.9,214.9z"/>
</svg>
