<svg xmlns="http://www.w3.org/2000/svg" xmlns:xlink="http://www.w3.org/1999/xlink" viewBox="0,0,255.99431,255.99431" width="48px" height="48px"><g fill="#40ad31" fill-rule="nonzero" stroke="none" stroke-width="1" stroke-linecap="butt" stroke-linejoin="miter" stroke-miterlimit="10" stroke-dasharray="" stroke-dashoffset="0" font-family="none" font-weight="none" font-size="none" text-anchor="none" style="mix-blend-mode: normal"><g transform="scale(5.12,5.12)"><path d="M25,2c-12.6907,0 -23,10.3093 -23,23c0,12.69071 10.3093,23 23,23c12.69071,0 23,-10.30929 23,-23c0,-12.6907 -10.30929,-23 -23,-23zM25,4c11.60982,0 21,9.39018 21,21c0,11.60982 -9.39018,21 -21,21c-11.60982,0 -21,-9.39018 -21,-21c0,-11.60982 9.39018,-21 21,-21zM25,6c-6.60746,0 -12,5.39254 -12,12c0,6.59198 5.39068,12 12,12c6.60932,0 12,-5.40802 12,-12c0,-6.60746 -5.39254,-12 -12,-12zM25,8c3.26674,0 6.15943,1.57315 7.98438,3.99609c-4.99034,-1.00321 -7.98437,-3.99609 -7.98437,-3.99609zM25,8c0,0 -2.99403,2.99288 -7.98437,3.99609c1.82495,-2.42294 4.71764,-3.99609 7.98438,-3.99609zM14.35156,9.125l-0.42578,0.25586l-0.45117,-0.20703l0.11133,0.48438l-0.33594,0.36523l0.49414,0.04492l0.24414,0.43164l0.19531,-0.45703l0.48633,-0.09961l-0.37305,-0.32617zM35.64844,9.125l0.05469,0.49219l-0.37305,0.32617l0.48633,0.09961l0.19531,0.45703l0.24414,-0.43164l0.49414,-0.04492l-0.33594,-0.36523l0.11133,-0.48437l-0.45117,0.20703zM26.375,11c1.125,0 3.625,0.5 3.625,4c0,3.25 -2.5,3.75 -3.5,3.75c-0.875,0 -2.125,-0.375 -2.125,-1.625c0,-0.314 0.25,-1.125 1,-1.125c0.213,0 0.39184,0.13331 0.46484,0.32031c0.023,0.051 0.03516,0.10969 0.03516,0.17969c0,0.276 -0.224,0.5 -0.5,0.5c-0.128,0 -0.24208,-0.05186 -0.33008,-0.13086c0.14,0.354 0.41908,0.75586 1.20508,0.75586c0.795,0 1.75,-0.625 1.75,-1.75c0,-0.312 -0.15122,-0.63487 -0.44922,-0.92187c0.426,-0.388 0.57422,-0.70312 0.57422,-1.20312c0,-0.5 -0.375,-1.75 -1.875,-1.75c-1,0 -1.62591,0.62463 -1.87891,1.39063c0,3.864 0.00391,7.72737 0.00391,11.60938l-1.32031,-1.31641l-2.05469,-0.68359l1.375,-0.25v-5.18555l-0.875,-0.875l0.875,-0.875v-3.56445c0,0 -0.25,-0.25 -0.75,-0.25c-0.375,0 -0.625,0.16211 -0.625,0.16211c0.527,-1.282 1.79181,-1.54509 2.75781,-0.24609c0.743,-0.666 1.82819,-0.91602 2.61719,-0.91602zM12.63672,11.375l-0.48828,0.29297l-0.51563,-0.23633l0.12695,0.55273l-0.38281,0.41797l0.56445,0.05078l0.2793,0.49414l0.22266,-0.52149l0.55664,-0.11328l-0.42773,-0.37305zM37.36328,11.375l0.06445,0.56445l-0.42773,0.37305l0.55664,0.11328l0.22266,0.52149l0.2793,-0.49414l0.56445,-0.05078l-0.38281,-0.41797l0.12695,-0.55273l-0.51563,0.23633zM17,12.01758c-0.02282,0.97047 -0.97208,10.00104 8,15.98242c8.97208,-5.98139 8.02282,-15.01196 8,-15.98242c1.25054,1.66949 2,3.73615 2,5.98242c0,5.50402 -4.47932,10 -10,10c-5.52068,0 -10,-4.49598 -10,-10c0,-2.24627 0.74946,-4.31293 2,-5.98242zM11.00195,14l-0.66406,0.62109l-0.89063,-0.19336l0.38867,0.82422l-0.46094,0.78516l0.90234,-0.11328l0.60547,0.67969l0.17188,-0.89258l0.83398,-0.36524l-0.79687,-0.43945zM38.99805,14l-0.08984,0.90625l-0.79687,0.43945l0.83398,0.36524l0.17188,0.89258l0.60547,-0.67969l0.90234,0.11328l-0.46094,-0.78516l0.38867,-0.82422l-0.89062,0.19336zM9.79883,17.75l-0.7207,0.8125l-1.07812,-0.13477l0.54883,0.9375l-0.45898,0.98438l1.06055,-0.23437l0.79297,0.74219l0.10547,-1.08008l0.95117,-0.52539l-0.99414,-0.43555zM40.20117,17.75l-0.20703,1.06641l-0.99414,0.43555l0.95117,0.52539l0.10547,1.08008l0.79297,-0.74219l1.06055,0.23438l-0.45898,-0.98437l0.54883,-0.9375l-1.07812,0.13477zM12.19922,23.67969l-6.17969,2.08984c0.02,0.58 0.07039,1.15094 0.15039,1.71094l2.42969,-0.91016l0.73047,2.16016c0,0 0.22961,1.08961 1.34961,0.34961c1.11,-0.74 2.63086,-1.7793 2.63086,-1.7793c0,0 0.75023,-0.45023 0.24023,-1.24023c-0.02,-0.03 -0.04055,-0.05961 -0.06055,-0.09961c-0.45,-0.64 -0.83992,-1.33102 -1.16992,-2.04102c-0.05,-0.08 -0.08109,-0.15023 -0.12109,-0.24023zM38.08008,23.78711c-0.30797,0.02953 -0.46094,0.2832 -0.46094,0.2832c0,0 -0.29859,0.67945 -0.80859,1.43945c-0.4,0.7 0.19922,0.9707 0.19922,0.9707c0,0 2.18109,1.21047 2.87109,1.48047c0.69,0.25 0.89977,0.0093 1.00977,-0.2207c0.2,-0.43 0.68945,-1.43945 0.68945,-1.43945l1.03906,0.39844c0,0 -0.02867,0.43047 -0.13867,0.98047c-0.08,0.42 -0.22008,0.35031 -0.33008,0.32031c-0.17,-0.05 -0.54102,-0.19922 -0.54102,-0.19922l-0.44922,1.16992c0,0 0.64008,0.32859 1.33008,0.55859c0.89,0.31 1.02984,-0.26859 1.08984,-0.55859c0.15,-0.72 0.28984,-1.46094 0.33984,-2.21094c0.06,-0.9 -0.29953,-1.00008 -0.51953,-1.08008c-0.6,-0.22 -1.67031,-0.55 -2.32031,-0.75c-0.5,-0.15 -0.6993,0.21969 -0.7793,0.42969c-0.08,0.22 -0.21109,0.50109 -0.37109,0.87109c-0.12,0.28 -0.30938,0.29992 -0.60938,0.16992c-0.29,-0.13 -0.80016,-0.38961 -1.16016,-0.59961c-0.18,-0.11 -0.02039,-0.37133 0.09961,-0.61133c0.12,-0.25 0.45117,-0.08008 0.45117,-0.08008l0.31836,0.12109l0.33984,-0.86133c0,0 -0.36969,-0.29953 -0.92969,-0.51953c-0.1375,-0.0575 -0.25672,-0.07234 -0.35937,-0.0625zM11.66016,25.23047c0,0 0.37055,0.70031 0.56055,1.07031c0.18,0.4 -0.29101,0.51953 -0.29101,0.51953c0,0 -0.59922,0.27953 -1.19922,0.51953c-0.63,0.25 -0.73047,-0.33984 -0.73047,-0.33984l-0.30078,-1.07031zM35.59961,27.13086c-0.3,0.36 -0.63047,0.7093 -0.98047,1.0293l6.11133,7.48047c0.32,-0.46 0.60914,-0.93016 0.86914,-1.41016l-1.34961,-1.61133l0.74023,-1.63867l1.70898,0.92969c0.06,-0.14 0.11992,-0.29922 0.16992,-0.44922c0.15,-0.42 0.29039,-0.84148 0.40039,-1.27148zM14.88086,27.66992l-7.74023,3.83008c0.2,0.53 0.41016,1.04078 0.66016,1.55078l2,-1.07031l1.04297,1.64453l-1.59375,1.98438c0.29,0.44 0.59945,0.86148 0.93945,1.27148l5.86133,-8.11133c-0.42,-0.34 -0.79992,-0.69961 -1.16992,-1.09961zM36.64063,28.81055l3.09961,1.60938l-0.59961,1.08008zM33.78906,29.12891c-0.15563,0.0075 -0.33883,0.06141 -0.54883,0.19141c-0.03,0.02 -0.05984,0.03883 -0.08984,0.04883c-0.64,0.47 -1.32125,0.8807 -2.03125,1.2207c-0.03,0.02 -0.05984,0.03078 -0.08984,0.05078c-0.01,0.01 -0.02906,0.00953 -0.03906,0.01953l-0.00977,0.00977l5.18945,9.68945c0.57,-0.41 1.10914,-0.85031 1.61914,-1.32031l-2.95898,-4.37891l0.58984,-0.42969l4.13086,2.96875c0.37,-0.42 0.7093,-0.87008 1.0293,-1.33008l-4.17969,-2.59961c0,0 0.74,-0.81984 0,-1.58984c-0.74,-0.79 -1.91992,-2.17969 -1.91992,-2.17969c0,0 -0.22453,-0.39359 -0.69141,-0.37109zM16.71094,29.2793l-6.16016,8.05078c1.15,1.35 2.47875,2.52977 3.96875,3.50977c0.3,-0.63 0.6275,-1.23133 0.9375,-1.86133c-0.75,-0.52 -1.63434,-1.00858 -2.27734,-1.76758c1.51,-2.43 2.99976,-4.84148 4.50977,-7.27148c-0.33,-0.21 -0.65852,-0.43016 -0.97852,-0.66016zM14.16016,29.41992l-2.37109,2.91016l-0.68945,-1.11914zM33.4668,30.56055c0.19687,-0.00844 0.30273,0.16016 0.30273,0.16016c0,0 0.76125,0.90883 1.03125,1.29883c0.29,0.38 0.05969,0.55969 -0.07031,0.67969c-0.39,0.34 -0.78125,0.52148 -0.78125,0.52148l-1.34961,-2.16016c0,0 0.32062,-0.21992 0.64063,-0.41992c0.085,-0.055 0.16094,-0.07727 0.22656,-0.08008zM30.17969,31c-0.37,0.15 -0.73891,0.29039 -1.12891,0.40039l3.91992,10.83984c0.72,-0.32 1.42008,-0.70109 2.08008,-1.12109zM20.00977,31.08008l-4.84961,10.17969c0.61,0.36 1.24062,0.70023 1.89063,0.99023l2.70898,-7.64062v6.71094l3.00977,-5.58008l-0.76953,8.01953c0.7,0.12 1.42039,0.1907 2.15039,0.2207l0.33984,-11.99023c-0.37,-0.01 -0.72984,-0.04008 -1.08984,-0.08008l-2.12109,3.68945v-4.10937c-0.44,-0.11 -0.85953,-0.25016 -1.26953,-0.41016zM28.50977,31.56055c-1.02,0.26 -2.07969,0.40969 -3.17969,0.42969l-0.0293,0.00977l0.20898,11.99023c2.26,-0.06 4.42016,-0.51078 6.41016,-1.30078l-0.60937,-1.97852c-1.08,0.41 -2.93062,0.9182 -3.39062,0.9082c-0.17,-1.18 -0.34,-2.35906 -0.5,-3.53906c0,0 2.17938,-0.37047 2.85938,-0.73047l-0.5293,-1.73047c-1.6,0.56 -2.61914,0.60156 -2.61914,0.60156l-0.33008,-3.15039c0,0 1.46906,-0.21969 2.03906,-0.42969z"></path></g></g></svg>