<?xml version="1.0" encoding="UTF-8" standalone="no"?>
<!-- Created with Inkscape (http://www.inkscape.org/) -->
<svg
   xmlns:svg="http://www.w3.org/2000/svg"
   xmlns="http://www.w3.org/2000/svg"
   version="1.0"
   width="350"
   height="348.69"
   id="svg2">
  <defs
     id="defs4" />
  <g
     id="layer1">
    <g
       transform="matrix(1.5843754,0,0,1.5843754,-104.87525,-536.5882)"
       id="g3355">
      <path
         d="M 73.294118,345.77395 L 280,345.77395 L 280,425.6563 L 176.64706,551.6563 L 73.294118,425.6563 L 73.294118,345.77395 z"
         id="path2507"
         style="fill:#ffffff;fill-opacity:1;fill-rule:evenodd;stroke:#000000;stroke-width:1.57790887;stroke-linecap:butt;stroke-linejoin:miter;stroke-miterlimit:4;stroke-dasharray:none;stroke-opacity:1" />
      <rect
         width="186.52942"
         height="54.509979"
         x="83.382355"
         y="356.81308"
         id="rect3279"
         style="fill:#000000;fill-opacity:1;fill-rule:evenodd;stroke:none;stroke-width:1px;stroke-linecap:butt;stroke-linejoin:miter;marker:none;marker-start:none;marker-mid:none;marker-end:none;stroke-miterlimit:4;stroke-dasharray:none;stroke-dashoffset:0;stroke-opacity:1;visibility:visible;display:inline;overflow:visible;enable-background:accumulate" />
      <path
         d="M 83.79413,421.12689 L 160.38236,421.12689 L 160.38236,515.00924 L 83.79413,421.12689 z"
         id="path3281"
         style="fill:#fe0000;fill-opacity:1;fill-rule:evenodd;stroke:none;stroke-width:1px;stroke-linecap:butt;stroke-linejoin:miter;stroke-opacity:1" />
      <path
         d="M 269.08824,421.12689 L 192.50001,421.12689 L 192.50001,515.00924 L 269.08824,421.12689 z"
         id="path3283"
         style="fill:#000000;fill-opacity:1;fill-rule:evenodd;stroke:none;stroke-width:1px;stroke-linecap:butt;stroke-linejoin:miter;stroke-opacity:1" />
      <path
         d="M 231.84559,365.9375 C 226.03807,365.9375 224.92831,369.21527 224.92831,371.2886 L 224.92831,396.21875 C 224.74111,400.58138 228.28955,402.78125 231.56618,402.78125 L 250.21324,402.78125 C 254.2318,402.78125 258.39706,400.56635 258.39706,395.65625 L 258.39706,388.65625 L 249.64706,388.65625 L 249.64706,391.125 C 249.88082,392.97758 248.99922,394.2495 247.59191,394.1875 L 235.83456,394.1875 C 234.11963,394.29778 232.49162,394.31029 232.92831,392 L 232.92831,375.84375 C 233.27437,374.71605 232.04963,373.06474 235.39706,372.9375 L 248.05331,372.9375 C 248.81009,373.35467 249.95398,372.61049 249.95956,375.28125 L 250.08456,378.1875 L 258.24081,378.1875 L 258.24081,371.23897 C 258.24081,367.20514 254.76083,365.9375 251.62868,365.9375 L 231.84559,365.9375 z M 163.74265,365.9375 L 138.14706,365.9375 L 138.14706,402.5 L 147.04188,402.5 L 147.04188,389.01105 L 163.68248,389.01105 C 167.14637,389.01105 170.88715,387.36158 170.88715,382.6875 L 170.88715,372.0625 C 170.88715,369.11287 168.62371,365.988 163.74265,365.9375 z M 99.865812,365.9375 C 96.428872,366.20758 94.998092,367.80156 95.053312,370.59375 L 95.053312,382.68902 C 95.053312,384.85923 97.021632,386.90701 102.12307,386.90701 L 117.61581,386.90701 C 118.35637,386.90701 118.77206,387.28166 118.77206,388.43561 L 118.77206,392.3125 C 118.77206,393.46752 118.35905,394.34375 117.38904,394.34375 L 94.897062,394.34375 L 94.897062,402.1875 L 122.22137,402.1875 C 126.27237,402.1875 127.80331,400.10982 127.80331,397.25152 L 127.80331,384 C 127.80331,379.05515 121.76035,379.34375 119.52812,379.34375 L 105.61467,379.34375 C 104.36355,379.46987 103.16448,378.30651 103.27206,377.07393 L 103.27206,374.47828 C 103.1403,373.52256 104.05487,372.80469 105.27206,372.8125 L 127.80331,372.78125 L 127.80331,365.9375 L 99.865812,365.9375 z M 181.83456,365.9375 L 181.83456,402.625 L 189.95956,402.625 L 189.95956,388.9375 L 208.30331,388.9375 L 208.30331,380.9375 L 190.11581,380.9375 L 190.11581,372.78125 L 214.58456,372.78125 L 214.58456,365.9375 L 181.83456,365.9375 z M 147.04188,373.96875 L 160.67831,373.96875 C 161.68856,373.96875 162.83456,374.04319 162.83456,376.00915 L 162.83456,379.35846 C 162.83456,381.37678 161.77892,381.45221 160.70956,381.45221 L 147.04188,381.45221 L 147.04188,373.96875 z"
         id="path3338"
         style="fill:#ffffff;fill-rule:evenodd;stroke:none;stroke-width:1px;stroke-linecap:butt;stroke-linejoin:miter;stroke-opacity:1" />
    </g>
  </g>
</svg>
